<svg width="32" height="34" viewBox="0 0 32 34" fill="none" xmlns="http://www.w3.org/2000/svg">
<g id="icon">
<g id="Vector">
<path d="M20.9206 1.56267C22.9779 0.339838 25.7789 2.37239 25.3162 4.70239C25.1014 6.90019 22.2013 8.04867 20.5157 6.66884C18.7228 5.46253 18.9955 2.4798 20.9206 1.56267Z" fill="#414141"/>
<path d="M16.0872 7.68513C17.657 7.46204 19.6152 6.48708 20.9702 7.76775C22.4657 9.83336 23.2259 12.3038 24.2422 14.6173C26.44 14.8404 29.3979 13.8241 31.0421 15.5757C30.9595 15.9889 30.7942 16.8151 30.7116 17.2282C28.0016 17.8148 25.1345 17.8231 22.4162 17.286C21.6147 16.055 21.0611 14.6917 20.4167 13.3779C19.3673 15.1709 18.285 16.9473 17.1943 18.7072C18.7642 20.2936 20.6893 21.6899 21.656 23.7473C21.5486 25.879 20.8463 27.9198 20.2266 29.9441C21.5651 30.5803 22.7136 31.5387 24.0356 32.2162C21.7965 33.8852 18.789 32.8607 16.2111 33.1003C16.8473 30.5885 17.4505 28.0685 18.1115 25.565C16.5994 24.0777 15.0874 22.5905 13.5919 21.0785C12.6252 22.4583 12.0055 24.2099 10.5844 25.1849C8.79971 25.5237 6.96546 25.3997 5.16425 25.4245C4.495 26.8209 4.05709 28.3164 3.28042 29.6631C2.13195 27.267 1.55358 24.6644 1 22.0865C3.37131 22.0865 5.74262 22.0782 8.11393 22.0865C10.3283 18.3932 12.5674 14.7164 14.7817 11.0231C11.7659 11.6511 8.84103 12.6674 5.77567 13.064C4.28844 13.6258 3.43741 10.7009 5.04858 10.4282C8.64273 9.2302 12.4352 8.71793 16.0872 7.68513Z" fill="#414141"/>
</g>
</g>
</svg>
