<svg xmlns="http://www.w3.org/2000/svg" width="19" height="18" viewBox="0 0 19 18" fill="none">
  <path fill-rule="evenodd" clip-rule="evenodd" d="M4.32851 0.5H14.6491C14.6491 0.5 14.6491 0.5 14.6491 0.5C15.5304 0.499932 16.3762 0.847504 17.0034 1.46743C17.6306 2.08737 17.9886 2.92975 18 3.81212L18 3.815L18 14.1716L18 14.1735C17.9924 15.0584 17.636 15.9044 17.0084 16.5275C16.3808 17.1505 15.5329 17.5 14.6491 17.5H1.22339C1.10002 17.5 1 17.3999 1 17.2763V3.81213C1.01126 2.93389 1.366 2.09508 1.98803 1.47582C2.61006 0.856553 3.4498 0.506207 4.32693 0.500006L4.32851 0.5ZM16.6895 1.78581C16.146 1.24853 15.4129 0.947305 14.6491 0.947368H4.32932C3.56941 0.952943 2.84195 1.25655 2.30304 1.79307C1.76428 2.32943 1.4569 3.05583 1.44678 3.81646V17.0526H14.6491C15.4151 17.0527 16.15 16.7497 16.6939 16.2098C17.2376 15.67 17.5464 14.9372 17.5532 14.1706V3.81644C17.543 3.05224 17.2328 2.32275 16.6895 1.78581ZM13.7895 11.7289C13.6276 11.662 13.4496 11.6447 13.2779 11.6791C13.1062 11.7136 12.9485 11.7983 12.825 11.9226C12.7014 12.0468 12.6174 12.205 12.5837 12.377C12.55 12.5491 12.568 12.7273 12.6355 12.8891C12.703 13.0509 12.8169 13.189 12.9629 13.2859C13.1088 13.3828 13.2802 13.4341 13.4553 13.4334L13.4562 13.4334C13.5721 13.4334 13.6869 13.4105 13.7939 13.366C13.9009 13.3215 13.9981 13.2562 14.0799 13.174C14.1616 13.0918 14.2264 12.9942 14.2704 12.8869C14.3144 12.7796 14.3369 12.6646 14.3364 12.5485L14.3364 12.5476C14.3364 12.3723 14.2844 12.2009 14.187 12.0551C14.0897 11.9094 13.9513 11.7959 13.7895 11.7289ZM13.19 11.2405C13.4484 11.1886 13.7164 11.2147 13.96 11.3154C14.2036 11.4162 14.4119 11.5871 14.5584 11.8064C14.7049 12.0256 14.7831 12.2834 14.7832 12.5472C14.7838 12.722 14.75 12.8952 14.6837 13.0568C14.6173 13.2187 14.5197 13.3658 14.3964 13.4897C14.2731 13.6137 14.1266 13.712 13.9653 13.7791C13.8041 13.8462 13.6313 13.8807 13.4567 13.8808C13.1933 13.8818 12.9355 13.8045 12.716 13.6587C12.4963 13.5129 12.3248 13.3051 12.2233 13.0615C12.1217 12.818 12.0945 12.5498 12.1453 12.2909C12.1961 12.0319 12.3224 11.7938 12.5084 11.6069C12.6944 11.4199 12.9316 11.2924 13.19 11.2405ZM13.4567 13.8808C13.4565 13.8808 13.4564 13.8808 13.4562 13.8808L13.4562 13.6571L13.4567 13.8808C13.4569 13.8808 13.4566 13.8808 13.4567 13.8808ZM14.7832 12.5472C14.7832 12.5473 14.7832 12.5475 14.7832 12.5476L14.5598 12.5476L14.7832 12.5467C14.7832 12.5469 14.7832 12.547 14.7832 12.5472Z" fill="white"/>
  <path d="M14.6491 0.5H4.32851L4.32693 0.500006C3.4498 0.506207 2.61006 0.856553 1.98803 1.47582C1.366 2.09508 1.01126 2.93389 1 3.81213V17.2763C1 17.3999 1.10002 17.5 1.22339 17.5H14.6491C15.5329 17.5 16.3808 17.1505 17.0084 16.5275C17.636 15.9044 17.9924 15.0584 18 14.1735L18 14.1716L18 3.815L18 3.81212C17.9886 2.92975 17.6306 2.08737 17.0034 1.46743C16.3762 0.847504 15.5304 0.499932 14.6491 0.5ZM14.6491 0.5C14.6491 0.5 14.6491 0.5 14.6491 0.5ZM14.7832 12.5472C14.7831 12.2834 14.7049 12.0256 14.5584 11.8064C14.4119 11.5871 14.2036 11.4162 13.96 11.3154C13.7164 11.2147 13.4484 11.1886 13.19 11.2405C12.9316 11.2924 12.6944 11.4199 12.5084 11.6069C12.3224 11.7938 12.1961 12.0319 12.1453 12.2909C12.0945 12.5498 12.1217 12.818 12.2233 13.0615C12.3248 13.3051 12.4963 13.5129 12.716 13.6587C12.9355 13.8045 13.1933 13.8818 13.4567 13.8808M14.7832 12.5472C14.7838 12.722 14.75 12.8952 14.6837 13.0568C14.6173 13.2187 14.5197 13.3658 14.3964 13.4897C14.2731 13.6137 14.1266 13.712 13.9653 13.7791C13.8041 13.8462 13.6313 13.8807 13.4567 13.8808M14.7832 12.5472C14.7832 12.5473 14.7832 12.5475 14.7832 12.5476L14.5598 12.5476L14.7832 12.5467C14.7832 12.5469 14.7832 12.547 14.7832 12.5472ZM13.4567 13.8808C13.4565 13.8808 13.4564 13.8808 13.4562 13.8808L13.4562 13.6571L13.4567 13.8808ZM13.4567 13.8808C13.4569 13.8808 13.4566 13.8808 13.4567 13.8808ZM14.6491 0.947368C15.4129 0.947305 16.146 1.24853 16.6895 1.78581C17.2328 2.32275 17.543 3.05224 17.5532 3.81644V14.1706C17.5464 14.9372 17.2376 15.67 16.6939 16.2098C16.15 16.7497 15.4151 17.0527 14.6491 17.0526H1.44678V3.81646C1.4569 3.05583 1.76428 2.32943 2.30304 1.79307C2.84195 1.25655 3.56941 0.952943 4.32932 0.947368H14.6491ZM13.2779 11.6791C13.4496 11.6447 13.6276 11.662 13.7895 11.7289C13.9513 11.7959 14.0897 11.9094 14.187 12.0551C14.2844 12.2009 14.3364 12.3723 14.3364 12.5476L14.3364 12.5485C14.3369 12.6646 14.3144 12.7796 14.2704 12.8869C14.2264 12.9942 14.1616 13.0918 14.0799 13.174C13.9981 13.2562 13.9009 13.3215 13.7939 13.366C13.6869 13.4105 13.5721 13.4334 13.4562 13.4334L13.4553 13.4334C13.2802 13.4341 13.1088 13.3828 12.9629 13.2859C12.8169 13.189 12.703 13.0509 12.6355 12.8891C12.568 12.7273 12.55 12.5491 12.5837 12.377C12.6174 12.205 12.7014 12.0468 12.825 11.9226C12.9485 11.7983 13.1062 11.7136 13.2779 11.6791Z" stroke="white" stroke-linecap="round" stroke-linejoin="round"/>
  <path fill-rule="evenodd" clip-rule="evenodd" d="M5 4.71429C5 4.59594 5.09426 4.5 5.21053 4.5H8.68421C9.2984 4.5 9.88743 4.74834 10.3217 5.19039C10.756 5.63244 11 6.23199 11 6.85714C11 7.4823 10.756 8.08184 10.3217 8.52389C10.1252 8.72396 9.8969 8.88436 9.64896 9C9.8969 9.11565 10.1252 9.27604 10.3217 9.47611C10.756 9.91816 11 10.5177 11 11.1429C11 11.768 10.756 12.3676 10.3217 12.8096C9.88743 13.2517 9.2984 13.5 8.68421 13.5H5.21053C5.09426 13.5 5 13.4041 5 13.2857V4.71429ZM5.42105 9.21429V13.0714H8.68421C9.18673 13.0714 9.66866 12.8682 10.024 12.5066C10.3793 12.1449 10.5789 11.6543 10.5789 11.1429C10.5789 10.6314 10.3793 10.1408 10.024 9.77915C9.66866 9.41747 9.18673 9.21429 8.68421 9.21429H5.42105ZM8.68421 8.78571C9.18673 8.78571 9.66866 8.58253 10.024 8.22085C10.3793 7.85917 10.5789 7.36863 10.5789 6.85714C10.5789 6.34565 10.3793 5.85511 10.024 5.49344C9.66866 5.13176 9.18673 4.92857 8.68421 4.92857H5.42105V8.78571H8.68421Z" fill="white" stroke="white" stroke-linecap="round" stroke-linejoin="round"/>
</svg>