<svg width="22" height="22" viewBox="0 0 22 22" fill="none" xmlns="http://www.w3.org/2000/svg">
<g id="call-calling">
<g id="vuesax/linear/call-calling">
<g id="call-calling_2">
<g id="call-calling_3">
<path id="Vector" d="M20.1391 16.8024C20.1391 17.1324 20.0658 17.4716 19.9099 17.8016C19.7541 18.1316 19.5524 18.4433 19.2866 18.7366C18.8374 19.2316 18.3424 19.5891 17.7833 19.8183C17.2333 20.0474 16.6374 20.1666 15.9958 20.1666C15.0608 20.1666 14.0616 19.9466 13.0074 19.4974C11.9533 19.0483 10.8991 18.4433 9.85408 17.6824C8.79992 16.9124 7.80075 16.0599 6.84742 15.1158C5.90325 14.1624 5.05075 13.1633 4.28992 12.1183C3.53825 11.0733 2.93325 10.0283 2.49325 8.99242C2.05325 7.94742 1.83325 6.94825 1.83325 5.99492C1.83325 5.37159 1.94325 4.77575 2.16325 4.22575C2.38325 3.66659 2.73159 3.15325 3.21742 2.69492C3.80409 2.11742 4.44575 1.83325 5.12409 1.83325C5.38075 1.83325 5.63742 1.88825 5.86659 1.99825C6.10492 2.10825 6.31575 2.27325 6.48075 2.51159L8.60742 5.50909C8.77242 5.73825 8.89158 5.94909 8.97408 6.15075C9.05658 6.34325 9.10242 6.53575 9.10242 6.70992C9.10242 6.92992 9.03825 7.14992 8.90992 7.36075C8.79075 7.57159 8.61658 7.79159 8.39658 8.01159L7.69992 8.73575C7.59908 8.83659 7.55325 8.95575 7.55325 9.10242C7.55325 9.17575 7.56242 9.23992 7.58075 9.31325C7.60825 9.38659 7.63575 9.44159 7.65409 9.49659C7.81909 9.79909 8.10325 10.1933 8.50658 10.6699C8.91908 11.1466 9.35908 11.6324 9.83575 12.1183C10.3308 12.6041 10.8074 13.0533 11.2933 13.4658C11.7699 13.8691 12.1641 14.1441 12.4758 14.3091C12.5216 14.3274 12.5766 14.3549 12.6408 14.3824C12.7141 14.4099 12.7874 14.4191 12.8699 14.4191C13.0258 14.4191 13.1449 14.3641 13.2458 14.2633L13.9424 13.5758C14.1716 13.3466 14.3916 13.1724 14.6024 13.0624C14.8133 12.9341 15.0241 12.8699 15.2533 12.8699C15.4274 12.8699 15.6108 12.9066 15.8124 12.9891C16.0141 13.0716 16.2249 13.1908 16.4541 13.3466L19.4883 15.5008C19.7266 15.6658 19.8916 15.8583 19.9924 16.0874C20.0841 16.3166 20.1391 16.5458 20.1391 16.8024Z" fill="currentColor"/>
<path id="Vector_2" d="M16.9583 8.24984C16.9583 7.69984 16.5275 6.8565 15.8858 6.169C15.2992 5.5365 14.52 5.0415 13.75 5.0415" stroke="currentColor" stroke-linecap="round" stroke-linejoin="round"/>
<path id="Vector_3" d="M20.1667 8.24992C20.1667 4.70242 17.2975 1.83325 13.75 1.83325" stroke="currentColor" stroke-linecap="round" stroke-linejoin="round"/>
</g>
</g>
</g>
</g>
</svg>
