<svg width="116" height="76" viewBox="0 0 116 76" fill="none" xmlns="http://www.w3.org/2000/svg">
<g id="Group">
<g id="Group_2">
<path id="Vector" d="M0 22.7254V1.06873H7.71571C8.88748 1.06873 9.9511 1.36187 10.9025 1.95017C11.854 2.53847 12.6071 3.32755 13.164 4.31742C13.7188 5.30729 13.9972 6.39554 13.9972 7.58218C13.9972 8.76882 13.7108 9.90125 13.1399 10.8851C12.5691 11.8709 11.8059 12.654 10.8485 13.2363C9.89101 13.8185 8.84742 14.1097 7.71571 14.1097H3.76571V22.7254H0ZM3.76571 10.3349H7.3151C7.84991 10.3349 8.33865 10.2004 8.78132 9.93337C9.224 9.66633 9.57653 9.30492 9.83893 8.85114C10.1013 8.39737 10.2335 7.89139 10.2335 7.33522C10.2335 6.77905 10.1013 6.25701 9.83893 5.80323C9.57653 5.34946 9.224 4.98804 8.78132 4.721C8.33865 4.45396 7.84991 4.31943 7.3151 4.31943H3.76571V10.3369V10.3349Z" fill="white"/>
<path id="Vector_2" d="M15.7559 22.7254V1.06873H29.3044V4.84348H19.5196V9.23664H27.2813V13.0114H19.5196V18.9506H29.3044V22.7254H15.7559Z" fill="white"/>
<path id="Vector_3" d="M31.3735 22.7254V1.06873H35.4477L44.5676 15.9027V1.06873H48.3333V22.7254H44.2751L35.1392 7.89139V22.7254H31.3735Z" fill="white"/>
<path id="Vector_4" d="M58.4847 23.1269C57.2909 23.1269 56.1472 22.9382 55.0515 22.5627C53.9558 22.1873 52.9964 21.6451 52.1731 20.9384C51.3499 20.2316 50.759 19.3843 50.3984 18.3944L53.9318 17.0954C54.076 17.507 54.3685 17.8844 54.8111 18.2238C55.2538 18.5631 55.7926 18.8382 56.4316 19.043C57.0686 19.2498 57.7536 19.3522 58.4847 19.3522C59.2158 19.3522 59.9369 19.2357 60.5919 19.0048C61.2449 18.7719 61.7717 18.4486 62.1743 18.031C62.5749 17.6134 62.7752 17.1255 62.7752 16.5693C62.7752 16.0131 62.5649 15.5353 62.1423 15.1698C61.7196 14.8044 61.1808 14.5133 60.5218 14.2964C59.8628 14.0796 59.1838 13.9149 58.4847 13.8005C56.9524 13.5635 55.5783 13.1981 54.3645 12.7022C53.1506 12.2063 52.1912 11.5216 51.4861 10.6441C50.781 9.76672 50.4285 8.63228 50.4285 7.24084C50.4285 5.93173 50.803 4.78725 51.5542 3.80742C52.3053 2.82759 53.2928 2.06461 54.5167 1.51848C55.7405 0.972344 57.0626 0.69928 58.4827 0.69928C59.6665 0.69928 60.8082 0.886007 61.9079 1.25545C63.0096 1.6269 63.973 2.16902 64.8023 2.8798C65.6295 3.59058 66.2244 4.44793 66.585 5.44784L63.0356 6.73085C62.8914 6.31924 62.599 5.94177 62.1563 5.60043C61.7136 5.26111 61.1748 4.99004 60.5358 4.78926C59.8969 4.58847 59.2138 4.48809 58.4827 4.48809C57.7516 4.47805 57.0605 4.5945 56.4076 4.83545C55.7546 5.07839 55.2218 5.40568 54.8111 5.81729C54.4005 6.22889 54.1942 6.70475 54.1942 7.24084C54.1942 7.93154 54.3865 8.45359 54.7731 8.80295C55.1597 9.15232 55.6764 9.40932 56.3234 9.56794C56.9704 9.72656 57.6915 9.87514 58.4847 10.0077C59.9249 10.2345 61.2569 10.616 62.4808 11.1521C63.7046 11.6882 64.6881 12.403 65.4272 13.2945C66.1664 14.186 66.5389 15.2762 66.5389 16.5653C66.5389 17.8543 66.1684 19.0229 65.4272 20.0067C64.6861 20.9926 63.7046 21.7576 62.4808 22.3037C61.2569 22.8498 59.9249 23.1229 58.4847 23.1229V23.1269Z" fill="white"/>
<path id="Vector_5" d="M69.1187 22.7254V1.06873H72.8844V22.7254H69.1187Z" fill="white"/>
<path id="Vector_6" d="M85.7541 23.1269C84.2939 23.1269 82.9198 22.8358 81.6339 22.2535C80.3479 21.6713 79.2162 20.8641 78.2387 19.8321C77.2612 18.802 76.4941 17.6074 75.9392 16.2521C75.3844 14.8968 75.106 13.4451 75.106 11.8971C75.106 10.349 75.3844 8.89934 75.9392 7.54204C76.4941 6.18674 77.2612 4.99207 78.2387 3.96004C79.2162 2.93001 80.3479 2.12286 81.6339 1.53858C82.9198 0.954292 84.2939 0.665161 85.7541 0.665161C87.2143 0.665161 88.6044 0.9563 89.8904 1.53858C91.1763 2.12085 92.3081 2.92801 93.2855 3.96004C94.263 4.99207 95.0262 6.18473 95.577 7.54204C96.1278 8.89733 96.4023 10.349 96.4023 11.8971C96.4023 13.4451 96.1278 14.8948 95.577 16.2521C95.0262 17.6074 94.263 18.802 93.2855 19.8321C92.3081 20.8641 91.1763 21.6713 89.8904 22.2535C88.6044 22.8358 87.2263 23.1269 85.7541 23.1269ZM85.7541 19.3522C86.6995 19.3522 87.5909 19.1554 88.4242 18.7639C89.2574 18.3724 89.9905 17.8343 90.6235 17.1476C91.2565 16.4609 91.7492 15.6698 92.1058 14.7723C92.4623 13.8748 92.6386 12.917 92.6386 11.895C92.6386 10.8731 92.4583 9.9133 92.0977 9.00977C91.7372 8.10825 91.2404 7.31515 90.6075 6.63449C89.9745 5.95383 89.2434 5.41774 88.4161 5.02621C87.5889 4.63468 86.7016 4.43791 85.7541 4.43791C84.8067 4.43791 83.9173 4.63468 83.0841 5.02621C82.2508 5.41774 81.5177 5.95785 80.8847 6.64252C80.2518 7.32921 79.757 8.1203 79.4025 9.0158C79.0479 9.91331 78.8697 10.8731 78.8697 11.893C78.8697 12.913 79.0499 13.8888 79.4105 14.7864C79.771 15.6839 80.2678 16.475 80.8987 17.1616C81.5317 17.8483 82.2628 18.3844 83.0901 18.7699C83.9173 19.1554 84.8047 19.3502 85.7521 19.3502L85.7541 19.3522Z" fill="white"/>
<path id="Vector_7" d="M98.1611 22.7254V1.06873H102.235L111.355 15.9027V1.06873H115.121V22.7254H111.063L101.927 7.89139V22.7254H98.1611Z" fill="white"/>
<path id="Vector_8" d="M8.36669 29.275H12.9937L21.3764 52.3853H17.112L15.6297 48.2913H5.74672L4.26447 52.3853H0L8.36669 29.275ZM7.21294 44.2635H14.1455L10.6702 34.7383L7.21094 44.2635H7.21294Z" fill="white"/>
<path id="Vector_9" d="M36.2869 29.275V33.3027H29.2382V52.3853H25.2201V33.3027H18.1714V29.275H36.2869Z" fill="white"/>
<path id="Vector_10" d="M38.9229 52.3853V29.275H47.7663C49.0182 29.275 50.1479 29.5882 51.1594 30.2166C52.1689 30.8431 52.9702 31.6824 53.5631 32.7345C54.156 33.7866 54.4524 34.9491 54.4524 36.2261C54.4524 37.2722 54.2621 38.232 53.8835 39.1074C53.505 39.9828 52.9782 40.7398 52.3032 41.3763C51.6281 42.0148 50.8509 42.4986 49.9736 42.8299L55.49 52.3873H50.863L45.5269 43.1934H42.9409V52.3873H38.9229V52.3853ZM42.9409 39.1636H47.3056C47.8764 39.1636 48.3972 39.021 48.8699 38.7339C49.3427 38.4488 49.7212 38.0633 50.0057 37.5794C50.2901 37.0955 50.4343 36.5554 50.4343 35.9611C50.4343 35.3668 50.2921 34.8106 50.0057 34.3267C49.7192 33.8428 49.3407 33.4573 48.8699 33.1722C48.3972 32.8871 47.8764 32.7425 47.3056 32.7425H42.9409V39.1636Z" fill="white"/>
<path id="Vector_11" d="M58.7329 52.3853V29.275H62.751V52.3853H58.7329Z" fill="white"/>
<path id="Vector_12" d="M75.7771 52.815C73.9323 52.815 72.3158 52.3632 70.9277 51.4617C69.5396 50.5601 68.46 49.3454 67.6908 47.8214C66.9216 46.2975 66.5391 44.6049 66.5391 42.7456V29.275H70.5572V42.7456C70.5572 43.8459 70.7635 44.8559 71.1741 45.7754C71.5867 46.695 72.1796 47.4259 72.9528 47.972C73.726 48.5162 74.6674 48.7892 75.7771 48.7892C76.8868 48.7892 77.8402 48.5162 78.6094 47.972C79.3785 47.4279 79.9614 46.695 80.364 45.7754C80.7646 44.8559 80.9649 43.8479 80.9649 42.7456V29.275H84.983V42.7456C84.983 44.1431 84.7627 45.4502 84.324 46.6669C83.8854 47.8837 83.2584 48.9539 82.4472 49.8775C81.634 50.8011 80.6665 51.5239 79.5408 52.0399C78.4151 52.558 77.1612 52.815 75.7771 52.815Z" fill="white"/>
<path id="Vector_13" d="M88.2759 52.3853L92.7547 29.275H96.0817L101.696 44.0828L107.313 29.275H110.64L115.119 52.3853H111.018L108.252 38.0894L103.064 51.8572H100.314L95.1263 38.0894L92.3761 52.3853H88.2759Z" fill="white"/>
</g>
<g id="Group_3">
<path id="Vector_14" d="M25.6431 61.0491V62.1635H20.5394V75.4876H19.4277V62.1635H14.3359V61.0491H25.6431Z" fill="white"/>
<path id="Vector_15" d="M27.1231 75.4856V61.0471H31.8142C32.5754 61.0471 33.2644 61.2318 33.8814 61.5993C34.4983 61.9667 34.987 62.4667 35.3476 63.0991C35.7081 63.7316 35.8884 64.4404 35.8884 65.2235C35.8884 65.9523 35.7362 66.6089 35.4297 67.1931C35.1252 67.7774 34.7106 68.2573 34.1898 68.6308C33.669 69.0062 33.0861 69.2411 32.4412 69.3375L35.9805 75.4835H34.6946L31.1752 69.4098H28.2328V75.4835H27.1211L27.1231 75.4856ZM28.2348 68.2975H31.7421C32.2969 68.2975 32.8057 68.1609 33.2644 67.8899C33.7231 67.6188 34.0917 67.2494 34.3661 66.7815C34.6405 66.3137 34.7767 65.7816 34.7767 65.1833C34.7767 64.585 34.6385 64.0609 34.3661 63.5891C34.0937 63.1172 33.7251 62.7478 33.2644 62.4747C32.8057 62.2036 32.2969 62.0671 31.7421 62.0671H28.2348V68.2955V68.2975Z" fill="white"/>
<path id="Vector_16" d="M43.2439 75.7546C42.0921 75.7546 41.1026 75.4735 40.2754 74.9093C39.4481 74.3451 38.8151 73.5881 38.3725 72.6364C37.9298 71.6847 37.7095 70.6266 37.7095 69.466V61.0511H38.8212V69.466C38.8212 70.4077 38.9934 71.2711 39.3359 72.0541C39.6785 72.8372 40.1792 73.4657 40.8382 73.9355C41.4972 74.4073 42.2984 74.6423 43.2459 74.6423C44.1933 74.6423 45.0246 74.4053 45.6796 73.9315C46.3346 73.4576 46.8293 72.8272 47.1658 72.0401C47.5023 71.253 47.6706 70.3957 47.6706 69.466V61.0511H48.7823V69.466C48.7823 70.3395 48.6561 71.1566 48.4017 71.9156C48.1473 72.6746 47.7828 73.3432 47.306 73.9214C46.8293 74.4997 46.2504 74.9495 45.5674 75.2727C44.8844 75.596 44.1112 75.7586 43.2479 75.7586L43.2439 75.7546Z" fill="white"/>
<path id="Vector_17" d="M61.5674 61.0491V62.1635H56.4637V75.4876H55.352V62.1635H50.2603V61.0491H61.5674Z" fill="white"/>
<path id="Vector_18" d="M63.0479 75.4856V61.0471H64.2617L72.3279 73.4737V61.0471H73.4396V75.4856H72.2458L64.1595 63.059V75.4856H63.0479Z" fill="white"/>
<path id="Vector_19" d="M82.0186 75.7546C81.0452 75.7546 80.1298 75.5599 79.2725 75.1723C78.4152 74.7848 77.66 74.2467 77.009 73.558C76.3581 72.8713 75.8473 72.0742 75.4767 71.1707C75.1062 70.2672 74.9219 69.2994 74.9219 68.2673C74.9219 67.2353 75.1062 66.2675 75.4767 65.364C75.8473 64.4605 76.3581 63.6634 77.009 62.9767C77.66 62.29 78.4152 61.7519 79.2725 61.3624C80.1298 60.9748 81.0452 60.7801 82.0186 60.7801C82.9921 60.7801 83.9175 60.9748 84.7748 61.3624C85.6321 61.7499 86.3873 62.288 87.0383 62.9767C87.6893 63.6634 88.198 64.4605 88.5666 65.364C88.9331 66.2675 89.1174 67.2353 89.1174 68.2673C89.1174 69.2994 88.9331 70.2672 88.5666 71.1707C88.2 72.0742 87.6913 72.8713 87.0383 73.558C86.3873 74.2447 85.6321 74.7828 84.7748 75.1723C83.9175 75.5599 82.9981 75.7546 82.0186 75.7546ZM82.0186 74.6403C82.8559 74.6403 83.6351 74.4716 84.3582 74.1343C85.0813 73.797 85.7163 73.3352 86.2611 72.7469C86.8059 72.1586 87.2326 71.4799 87.541 70.7109C87.8495 69.9419 88.0037 69.1267 88.0037 68.2673C88.0037 67.408 87.8475 66.5727 87.535 65.8017C87.2225 65.0327 86.7919 64.354 86.2431 63.7698C85.6942 63.1855 85.0593 62.7257 84.3402 62.3924C83.6191 62.0591 82.8439 61.8924 82.0146 61.8924C81.1854 61.8924 80.3982 62.0611 79.6731 62.3984C78.95 62.7357 78.315 63.1975 77.7702 63.7858C77.2254 64.3741 76.7987 65.0528 76.4903 65.8218C76.1818 66.5908 76.0276 67.406 76.0276 68.2653C76.0276 69.1247 76.1838 69.96 76.4963 70.729C76.8087 71.498 77.2394 72.1786 77.7882 72.7649C78.3371 73.3532 78.972 73.811 79.6971 74.1423C80.4202 74.4716 81.1934 74.6382 82.0166 74.6382L82.0186 74.6403Z" fill="white"/>
<path id="Vector_20" d="M94.9603 75.4856L89.7344 61.0471H90.9182L95.6093 74.0198L100.32 61.0471H101.494L96.2583 75.4856H94.9623H94.9603Z" fill="white"/>
</g>
</g>
</svg>
