<svg width="168" height="76" viewBox="0 0 168 76" fill="none" xmlns="http://www.w3.org/2000/svg">
<g id="logo">
<g id="TRUTNOV">
<path d="M8.75306 62.2001V63.3761H5.49106V72.0001H4.31506V63.3761H1.06006V62.2001H8.75306Z" fill="white"/>
<path d="M27.1684 72.0001V62.2001H30.6124C31.1351 62.2001 31.6064 62.3284 32.0264 62.5851C32.4511 62.8417 32.7871 63.1894 33.0344 63.6281C33.2864 64.0621 33.4124 64.5474 33.4124 65.0841C33.4124 65.5554 33.3191 65.9847 33.1324 66.3721C32.9458 66.7594 32.6891 67.0837 32.3624 67.3451C32.0404 67.6017 31.6741 67.7791 31.2634 67.8771L33.6434 72.0001H32.2854L29.9474 67.9751H28.3444V72.0001H27.1684ZM28.3444 66.7991H30.4934C30.8108 66.7991 31.1024 66.7221 31.3684 66.5681C31.6344 66.4094 31.8444 66.1971 31.9984 65.9311C32.1571 65.6604 32.2364 65.3571 32.2364 65.0211C32.2364 64.6804 32.1571 64.3771 31.9984 64.1111C31.8444 63.8404 31.6344 63.6281 31.3684 63.4741C31.1024 63.3154 30.8108 63.2361 30.4934 63.2361H28.3444V66.7991Z" fill="white"/>
<path d="M55.9988 72.1821C55.2148 72.1821 54.5335 71.9907 53.9548 71.6081C53.3808 71.2254 52.9375 70.7121 52.6248 70.0681C52.3168 69.4194 52.1628 68.7007 52.1628 67.9121V62.2001H53.3388V67.9121C53.3388 68.4721 53.4415 68.9877 53.6468 69.4591C53.8568 69.9304 54.1578 70.3061 54.5498 70.5861C54.9465 70.8661 55.4295 71.0061 55.9988 71.0061C56.5775 71.0061 57.0628 70.8661 57.4548 70.5861C57.8468 70.3014 58.1431 69.9257 58.3438 69.4591C58.5491 68.9877 58.6518 68.4721 58.6518 67.9121V62.2001H59.8278V67.9121C59.8278 68.5047 59.7391 69.0601 59.5618 69.5781C59.3845 70.0914 59.1278 70.5441 58.7918 70.9361C58.4605 71.3281 58.0591 71.6337 57.5878 71.8531C57.1165 72.0724 56.5868 72.1821 55.9988 72.1821Z" fill="white"/>
<path d="M85.9374 62.2001V63.3761H82.6754V72.0001H81.4994V63.3761H78.2444V62.2001H85.9374Z" fill="white"/>
<path d="M104.353 72.0001V62.2001H105.627L110.52 69.8721V62.2001H111.696V72.0001H110.429L105.529 64.3281V72.0001H104.353Z" fill="white"/>
<path d="M134.936 72.1821C134.273 72.1821 133.65 72.0514 133.067 71.7901C132.484 71.5241 131.97 71.1577 131.527 70.6911C131.084 70.2244 130.736 69.6854 130.484 69.0741C130.232 68.4581 130.106 67.8001 130.106 67.1001C130.106 66.4001 130.232 65.7444 130.484 65.1331C130.736 64.5171 131.084 63.9757 131.527 63.5091C131.97 63.0424 132.484 62.6784 133.067 62.4171C133.65 62.1511 134.273 62.0181 134.936 62.0181C135.603 62.0181 136.229 62.1511 136.812 62.4171C137.395 62.6784 137.909 63.0424 138.352 63.5091C138.795 63.9757 139.141 64.5171 139.388 65.1331C139.64 65.7444 139.766 66.4001 139.766 67.1001C139.766 67.8001 139.64 68.4581 139.388 69.0741C139.141 69.6854 138.795 70.2244 138.352 70.6911C137.909 71.1577 137.395 71.5241 136.812 71.7901C136.229 72.0514 135.603 72.1821 134.936 72.1821ZM134.936 71.0061C135.445 71.0061 135.919 70.9034 136.357 70.6981C136.8 70.4927 137.188 70.2104 137.519 69.8511C137.855 69.4871 138.117 69.0717 138.303 68.6051C138.494 68.1337 138.59 67.6321 138.59 67.1001C138.59 66.5681 138.494 66.0664 138.303 65.5951C138.112 65.1191 137.848 64.7037 137.512 64.3491C137.181 63.9897 136.793 63.7074 136.35 63.5021C135.911 63.2967 135.44 63.1941 134.936 63.1941C134.427 63.1941 133.951 63.2967 133.508 63.5021C133.069 63.7074 132.682 63.9921 132.346 64.3561C132.015 64.7154 131.753 65.1307 131.562 65.6021C131.375 66.0687 131.282 66.5681 131.282 67.1001C131.282 67.6367 131.378 68.1407 131.569 68.6121C131.76 69.0834 132.022 69.4987 132.353 69.8581C132.689 70.2174 133.076 70.4997 133.515 70.7051C133.958 70.9057 134.432 71.0061 134.936 71.0061Z" fill="white"/>
<path d="M161.018 72.0001L157.462 62.2001H158.708L161.746 70.5651L164.791 62.2001H166.03L162.474 72.0001H161.018Z" fill="white"/>
</g>
<g id="Group">
<path id="Vector" d="M34.8507 45.5518L27.052 53.8393H42.6477L34.8507 45.5518Z" fill="url(#paint0_linear_2574_484)"/>
<path id="Vector_2" d="M0.508043 53.7897L16.9048 36.1995C16.8419 35.826 16.784 35.4525 16.7724 35.0724C16.3884 30.528 17.8813 25.9178 20.6585 22.3113C23.8545 18.0844 28.909 15.1179 34.2897 14.9813C37.2705 14.8596 40.2694 15.5523 42.906 16.9376C48.2452 19.6508 52.0271 25.059 52.9075 30.9377C53.2088 32.7278 53.1724 34.5476 52.9324 36.3426L69.1984 53.7929C69.1918 52.2941 69.1487 50.7952 69.157 49.2963C69.1603 45.851 69.1438 42.404 69.1487 38.957C69.1289 36.2011 69.2613 33.432 68.9385 30.686C68.6638 27.9218 68.02 25.1955 67.0882 22.5778C65.2279 17.5628 62.2123 12.9773 58.3411 9.2671C54.0677 5.25908 48.7748 2.27446 43.0384 0.941746C36.8749 -0.52095 30.3109 -0.272505 24.2765 1.63936C18.262 3.61047 12.8367 7.2779 8.72215 12.0592C4.98004 16.3338 2.3882 21.584 1.25779 27.1386C0.551075 30.1874 0.479907 33.3317 0.511353 36.4479C0.508043 42.2279 0.498113 48.0096 0.506388 53.7897H0.508043Z" fill="url(#paint1_linear_2574_484)"/>
<g id="Group_2">
<path id="Vector_3" d="M21.6943 53.8389H27.1031L34.8505 45.5267L42.5979 53.8389H48.0066L34.8505 39.7236L21.6943 53.8389Z" fill="white"/>
<path id="Vector_4" d="M34.8506 16.9885L0.50293 53.8389H13.3711L34.8373 30.8093L56.3019 53.8389H69.1982L34.8506 16.9885Z" fill="white"/>
</g>
</g>
<g id="Group_3">
<path id="Vector_5" d="M75.9521 24.3968V7.31714H82.088C83.0208 7.31714 83.8656 7.54934 84.6223 8.01234C85.3789 8.47534 85.979 9.09824 86.4195 9.87826C86.8615 10.6597 87.0825 11.5175 87.0825 12.4519C87.0825 13.3862 86.8559 14.2803 86.4013 15.0561C85.9468 15.8333 85.3398 16.4507 84.5789 16.9109C83.8181 17.3697 82.9873 17.6005 82.088 17.6005H78.9466V24.3954H75.9521V24.3968ZM78.9466 14.6251H81.7691C82.1943 14.6251 82.5831 14.5194 82.9341 14.3081C83.2866 14.0967 83.5663 13.8117 83.7747 13.4544C83.9831 13.097 84.088 12.698 84.088 12.2586C84.088 11.8193 83.9831 11.4091 83.7747 11.0504C83.5663 10.693 83.2866 10.408 82.9341 10.1967C82.5817 9.98532 82.1943 9.87965 81.7691 9.87965H78.9466V14.6251Z" fill="white"/>
<path id="Vector_6" d="M88.481 24.3968V7.31714H99.2546V10.294H91.474V13.7589H97.6462V16.7357H91.474V21.42H99.2546V24.3968H88.481Z" fill="white"/>
<path id="Vector_7" d="M100.901 24.3968V7.31714H104.14L111.392 19.016V7.31714H114.387V24.3954H111.159L103.894 12.6966V24.3954H100.9L100.901 24.3968Z" fill="white"/>
<path id="Vector_8" d="M122.461 24.7141C121.511 24.7141 120.602 24.5653 119.731 24.2691C118.859 23.973 118.097 23.5461 117.442 22.9886C116.788 22.431 116.318 21.7623 116.031 20.9822L118.841 19.9575C118.956 20.2829 119.189 20.579 119.54 20.8474C119.891 21.1157 120.321 21.3312 120.829 21.4939C121.336 21.6566 121.88 21.7386 122.461 21.7386C123.041 21.7386 123.616 21.6468 124.136 21.4647C124.655 21.2812 125.075 21.0253 125.394 20.6958C125.713 20.3663 125.872 19.9825 125.872 19.5432C125.872 19.1038 125.704 18.7284 125.369 18.4392C125.033 18.15 124.603 17.9206 124.08 17.7496C123.557 17.5785 123.017 17.4492 122.461 17.3589C121.241 17.1725 120.15 16.8833 119.185 16.4926C118.22 16.1019 117.456 15.5611 116.897 14.87C116.338 14.179 116.056 13.2836 116.056 12.1866C116.056 11.1535 116.354 10.2511 116.952 9.47806C117.549 8.705 118.335 8.10295 119.308 7.67193C120.282 7.2409 121.333 7.02539 122.462 7.02539C123.403 7.02539 124.311 7.17138 125.187 7.46476C126.062 7.75813 126.829 8.18499 127.487 8.74532C128.146 9.30704 128.619 9.98138 128.904 10.7711L126.082 11.7833C125.967 11.458 125.734 11.1618 125.383 10.8921C125.03 10.6237 124.601 10.4096 124.094 10.2511C123.587 10.0926 123.043 10.0134 122.462 10.0134C121.882 10.005 121.331 10.0968 120.812 10.2873C120.291 10.4791 119.869 10.7364 119.542 11.0617C119.215 11.3871 119.051 11.7611 119.051 12.1838C119.051 12.7288 119.205 13.139 119.511 13.4157C119.817 13.6924 120.229 13.894 120.745 14.0191C121.261 14.1456 121.833 14.261 122.462 14.3667C123.608 14.5461 124.666 14.8464 125.641 15.2691C126.615 15.6918 127.397 16.2549 127.985 16.9584C128.574 17.662 128.869 18.5212 128.869 19.539C128.869 20.5568 128.576 21.4772 127.985 22.2531C127.397 23.0303 126.615 23.6337 125.641 24.0648C124.668 24.4958 123.608 24.7113 122.462 24.7113L122.461 24.7141Z" fill="white"/>
<path id="Vector_9" d="M130.916 24.3968V7.31714H133.91V24.3954H130.916V24.3968Z" fill="white"/>
<path id="Vector_10" d="M144.144 24.7137C142.982 24.7137 141.889 24.4843 140.867 24.0241C139.845 23.5652 138.944 22.9284 138.168 22.1151C137.39 21.3017 136.782 20.3604 136.34 19.2911C135.898 18.2219 135.677 17.0776 135.677 15.8569C135.677 14.6361 135.898 13.4932 136.34 12.4226C136.782 11.3533 137.391 10.412 138.168 9.59866C138.945 8.78528 139.845 8.14847 140.867 7.68964C141.889 7.23081 142.982 7 144.144 7C145.306 7 146.41 7.22942 147.432 7.68964C148.455 8.14847 149.355 8.78528 150.132 9.59866C150.908 10.412 151.516 11.3533 151.954 12.4226C152.392 13.4918 152.61 14.6361 152.61 15.8569C152.61 17.0776 152.392 18.2219 151.954 19.2911C151.516 20.3604 150.909 21.3017 150.132 22.1151C149.354 22.9284 148.455 23.5652 147.432 24.0241C146.41 24.4829 145.313 24.7137 144.144 24.7137ZM144.144 21.7369C144.897 21.7369 145.604 21.5825 146.267 21.2739C146.93 20.9652 147.513 20.5397 148.016 19.9989C148.519 19.458 148.911 18.8337 149.193 18.126C149.476 17.4183 149.617 16.6619 149.617 15.8569C149.617 15.0518 149.474 14.294 149.188 13.5822C148.901 12.8703 148.506 12.246 148.003 11.7093C147.499 11.1726 146.919 10.7499 146.26 10.4412C145.601 10.1326 144.897 9.97824 144.144 9.97824C143.392 9.97824 142.684 10.1326 142.021 10.4412C141.358 10.7499 140.775 11.1754 140.273 11.7162C139.769 12.2571 139.376 12.8814 139.095 13.5891C138.812 14.2968 138.671 15.0532 138.671 15.8582C138.671 16.6633 138.814 17.4322 139.101 18.1399C139.387 18.8476 139.782 19.4719 140.285 20.0128C140.789 20.5536 141.369 20.9763 142.028 21.2808C142.687 21.5853 143.392 21.7383 144.145 21.7383L144.144 21.7369Z" fill="white"/>
<path id="Vector_11" d="M154.01 24.3968V7.31714H157.249L164.501 19.016V7.31714H167.496V24.3954H164.268L157.003 12.6966V24.3954H154.009L154.01 24.3968Z" fill="white"/>
<path id="Vector_12" d="M82.6055 29.5625H86.2853L92.9512 47.7879H89.5595L88.3804 44.5594H80.5229L79.3438 47.7879H75.9521L82.6055 29.5625ZM81.6879 41.3837H87.2014L84.4377 33.8714L81.6879 41.3837Z" fill="white"/>
<path id="Vector_13" d="M104.809 29.5625V32.7396H99.203V47.7893H96.0086V32.7396H90.4028V29.5625H104.807H104.809Z" fill="white"/>
<path id="Vector_14" d="M106.904 47.7879V29.5625H113.936C114.932 29.5625 115.83 29.81 116.634 30.305C117.437 30.8 118.075 31.4618 118.546 32.2905C119.018 33.1191 119.254 34.0368 119.254 35.0435C119.254 35.868 119.103 36.6257 118.802 37.3154C118.502 38.005 118.082 38.6015 117.545 39.1048C117.008 39.6082 116.39 39.9905 115.692 40.2505L120.079 47.7879H116.399L112.156 40.5369H110.1V47.7879H106.905H106.904ZM110.099 37.3599H113.569C114.022 37.3599 114.437 37.2472 114.812 37.022C115.187 36.7968 115.489 36.4923 115.715 36.1113C115.942 35.7289 116.055 35.3035 116.055 34.8349C116.055 34.3663 115.942 33.9284 115.715 33.546C115.487 33.165 115.187 32.8605 114.812 32.6353C114.437 32.41 114.022 32.2974 113.569 32.2974H110.099V37.3613V37.3599Z" fill="white"/>
<path id="Vector_15" d="M122.658 47.7879V29.5625H125.854V47.7879H122.658Z" fill="white"/>
<path id="Vector_16" d="M136.211 48.1267C134.744 48.1267 133.458 47.7708 132.353 47.0589C131.248 46.347 130.391 45.3904 129.78 44.1891C129.169 42.9878 128.864 41.653 128.864 40.1861V29.5635H132.058V40.1861C132.058 41.0538 132.222 41.8505 132.549 42.5749C132.876 43.2992 133.348 43.8763 133.963 44.3059C134.579 44.7355 135.327 44.9497 136.209 44.9497C137.092 44.9497 137.85 44.7355 138.461 44.3059C139.072 43.8763 139.537 43.2992 139.856 42.5749C140.175 41.8505 140.334 41.0538 140.334 40.1861V29.5635H143.53V40.1861C143.53 41.2887 143.355 42.319 143.007 43.2784C142.657 44.2378 142.159 45.0817 141.513 45.8103C140.867 46.5389 140.096 47.1076 139.201 47.5163C138.306 47.9237 137.309 48.1281 136.209 48.1281L136.211 48.1267Z" fill="white"/>
<path id="Vector_17" d="M146.151 47.7879L149.713 29.5625H152.358L156.824 41.2405L161.29 29.5625H163.935L167.497 47.7879H164.237L162.037 36.5131L157.912 47.3708H155.725L151.6 36.5131L149.413 47.7879H146.153H146.151Z" fill="white"/>
</g>
</g>
<defs>
<linearGradient id="paint0_linear_2574_484" x1="27.052" y1="49.6947" x2="42.6477" y2="49.6947" gradientUnits="userSpaceOnUse">
<stop offset="0.17" stop-color="#4790CD"/>
<stop offset="0.35" stop-color="#6B88C5"/>
<stop offset="0.8" stop-color="#C676B1"/>
<stop offset="1" stop-color="#EA6FAA"/>
</linearGradient>
<linearGradient id="paint1_linear_2574_484" x1="0.503078" y1="26.8968" x2="69.1984" y2="26.8968" gradientUnits="userSpaceOnUse">
<stop offset="0.17" stop-color="#4790CD"/>
<stop offset="0.35" stop-color="#6B88C5"/>
<stop offset="0.8" stop-color="#C676B1"/>
<stop offset="1" stop-color="#EA6FAA"/>
</linearGradient>
</defs>
</svg>
