<svg width="80" height="56" viewBox="0 0 80 56" fill="none" xmlns="http://www.w3.org/2000/svg">
<g id="icon">
<path id="Vector" d="M22.206 34.7122C25.091 34.7122 27.425 32.3132 27.425 29.3442C27.425 26.3912 25.091 23.9912 22.206 23.9912C19.333 23.9912 17 26.3912 17 29.3442C17 32.3122 19.333 34.7122 22.206 34.7122ZM51.436 43.9282C51.4923 43.8871 51.5562 43.8576 51.6239 43.8413C51.6916 43.825 51.7619 43.8221 51.8308 43.833C51.8996 43.8439 51.9656 43.8682 52.025 43.9046C52.0844 43.941 52.1361 43.9888 52.177 44.0452L53.142 45.4172C53.2209 45.5366 53.2528 45.681 53.2313 45.8225C53.2099 45.964 53.1367 46.0925 53.026 46.1832L45.946 51.4702C45.8315 51.552 45.6893 51.5855 45.5503 51.5634C45.4113 51.5413 45.2865 51.4655 45.203 51.3522L44.241 49.9802C44.162 49.8612 44.1301 49.717 44.1515 49.5758C44.173 49.4345 44.2462 49.3064 44.357 49.2162L51.436 43.9282ZM43.433 37.1112L40.625 32.0482L39.151 33.1552L41.959 38.2452L43.433 37.1112ZM36.882 25.2842L25.962 5.57117L23.873 5.58517L35.395 26.4052L36.882 25.2842ZM47.163 35.7142C47.78 35.2532 49.192 34.5712 50 34.5712H60C61.974 34.5712 63 36.5572 63 38.5752C63 40.6052 61.974 41.5712 60 41.5712H51L40.164 50.0732C36.356 52.8922 34.048 49.7952 34.048 49.7952L25.565 41.0662C24.142 39.3132 24.45 35.9772 26.156 34.5002L37.895 25.9032C39.061 24.9032 40.792 25.0602 41.78 26.2462C42.756 27.4462 42.602 29.2402 41.434 30.2422L33.919 35.8992L39.318 41.3832L47.163 35.7142Z" fill="#253871"/>
</g>
</svg>
