<svg width="80" height="56" viewBox="0 0 80 56" fill="none" xmlns="http://www.w3.org/2000/svg">
<g id="icon">
<path id="Vector" d="M33.2525 26.7191C31.7308 26.7191 30.2715 26.1147 29.1955 25.0387C28.1195 23.9627 27.515 22.5033 27.515 20.9816C27.515 19.46 28.1195 18.0006 29.1955 16.9246C30.2715 15.8486 31.7308 15.2441 33.2525 15.2441C34.7742 15.2441 36.2335 15.8486 37.3095 16.9246C38.3855 18.0006 38.99 19.46 38.99 20.9816C38.99 22.5033 38.3855 23.9627 37.3095 25.0387C36.2335 26.1147 34.7742 26.7191 33.2525 26.7191ZM34.4 47.7515V39.2141C34.4 37.9697 34.7672 36.8248 35.4302 35.8022C33.1573 35.479 30.842 35.6334 28.6321 36.2556C26.4223 36.8778 24.3665 37.954 22.596 39.4156C25.3834 43.5404 29.5808 46.5055 34.4 47.7541V47.7515ZM20.2551 34.7771C23.9794 32.0211 28.4919 30.5369 33.125 30.5441C35.7077 30.5409 38.2702 31.0003 40.6908 31.9007C42.9298 31.0286 45.5996 30.5441 48.425 30.5441C52.658 30.5441 56.5467 31.6253 59.1503 33.4919C60.011 30.4061 60.1329 27.1609 59.506 24.0192C58.8792 20.8775 57.5212 17.9276 55.5421 15.4085C53.563 12.8893 51.0184 10.8716 48.1144 9.51884C45.2103 8.1661 42.0286 7.51631 38.8267 7.62211C35.6248 7.72791 32.4929 8.58632 29.6845 10.1278C26.8761 11.6693 24.4702 13.8506 22.6617 16.4949C20.8533 19.1393 19.693 22.1724 19.2749 25.3486C18.8568 28.5248 19.1926 31.7549 20.2551 34.7771ZM57.0414 38.4134C56.0393 37.0543 52.6861 35.6441 48.425 35.6441C43.3097 35.6441 39.5 37.6765 39.5 39.2141V48.3941C43.039 48.3961 46.5176 47.4769 49.5936 45.727C52.6697 43.977 55.2348 41.4565 57.0414 38.4134ZM39.5 53.4941C25.4164 53.4941 14 42.0778 14 27.9941C14 13.9105 25.4164 2.49414 39.5 2.49414C53.5836 2.49414 65 13.9105 65 27.9941C65 42.0778 53.5836 53.4941 39.5 53.4941ZM48.425 29.2691C47.0724 29.2691 45.7752 28.7318 44.8188 27.7754C43.8623 26.8189 43.325 25.5217 43.325 24.1691C43.325 22.8165 43.8623 21.5193 44.8188 20.5629C45.7752 19.6065 47.0724 19.0691 48.425 19.0691C49.7776 19.0691 51.0748 19.6065 52.0312 20.5629C52.9877 21.5193 53.525 22.8165 53.525 24.1691C53.525 25.5217 52.9877 26.8189 52.0312 27.7754C51.0748 28.7318 49.7776 29.2691 48.425 29.2691Z" fill="#253871"/>
</g>
</svg>
