<svg width="32" height="33" viewBox="0 0 32 33" fill="none" xmlns="http://www.w3.org/2000/svg">
<g id="icon">
<g id="Vector">
<path d="M13.6372 3.65213C13.3874 2.59244 13.8113 2.11559 14.924 2.20642C17.278 3.92462 19.1173 6.22564 21.2215 8.20876C22.319 8.18605 23.4166 8.17848 24.5217 8.17848C26.6486 6.2105 28.3819 3.73539 30.8873 2.21399L31.8865 2.28211C31.9167 2.64543 31.9697 3.37207 32 3.73539C30.2061 6.07426 27.8975 7.95898 25.8993 10.1162C25.8538 16.6484 26.0582 23.1881 25.8236 29.7127C26.0809 31.2644 23.1214 31.3174 23.4166 29.6749C23.1668 26.125 23.4014 22.5599 23.3333 19.0099H22.319C22.1677 22.7415 22.6445 26.5186 22.1071 30.2199C22.039 31.5975 19.4882 30.9541 19.8591 29.6219C19.6093 23.1124 19.8515 16.5878 19.7758 10.0783C17.77 7.89842 15.3857 6.05155 13.6372 3.65213Z" fill="#414141"/>
<path d="M22.0011 3.28123C23.3786 2.72868 25.1725 3.87919 25.0287 5.40059C25.2331 7.15664 22.8034 8.42826 21.4864 7.22476C19.9801 6.33917 20.3813 3.82621 22.0011 3.28123Z" fill="#414141"/>
<path d="M7.64248 11.6073C9.05034 10.5552 11.2984 11.9101 11.0864 13.651C11.0789 15.3162 8.92923 16.4213 7.58949 15.3995C6.20434 14.6198 6.24975 12.3567 7.64248 11.6073Z" fill="#414141"/>
<path d="M2.10179 19.7517C3.81242 18.1092 5.52305 15.8006 8.2101 16.1942C12.4867 15.3995 15.1132 19.343 17.5277 22.1663C17.6867 23.3774 17.1871 23.7861 16.029 23.4001C14.4698 22.3555 13.2512 20.9098 11.9568 19.5776C11.9568 21.1899 11.9568 22.8097 11.9417 24.4219C13.7204 24.6263 15.9912 23.8693 17.4142 25.2394C17.3234 27.5253 14.8558 28.7817 13.5312 30.4167C12.6381 31.4688 10.443 33.1491 9.79962 30.9995C10.0872 29.4024 11.6162 28.4638 12.6078 27.3133C10.1024 27.3512 7.58943 27.3436 5.08404 27.3133C6.02261 28.6758 8.53557 29.8338 7.49103 31.7791C7.12014 31.8397 6.37836 31.9683 6.00747 32.0289C3.74429 30.2653 1.71576 28.1762 0.0354068 25.8525C0.822599 23.5514 3.85026 24.7625 5.70471 24.4068C5.68957 22.7718 5.68957 21.1369 5.69714 19.5019C3.91838 20.713 2.48781 24.2932 0.0278377 23.1806C-0.221945 21.6667 1.26918 20.7811 2.10179 19.7517Z" fill="#414141"/>
</g>
</g>
</svg>
