<svg width="22" height="19" viewBox="0 0 22 19" fill="none" xmlns="http://www.w3.org/2000/svg">
<g id="icon">
<g id="Vector">
<path fill-rule="evenodd" clip-rule="evenodd" d="M4.56463 2.48372C3.53505 2.6228 2.94205 2.88361 2.50937 3.31855C2.07625 3.75354 1.8164 4.34958 1.67795 5.38432C1.53652 6.44132 1.53489 7.83495 1.53489 9.79718C1.53489 11.7584 1.53652 13.1515 1.67795 14.2084C1.81639 15.2429 2.07602 15.8392 2.50937 16.2748C2.94208 16.7101 3.53525 16.9713 4.56472 17.1105C5.61625 17.2527 7.00244 17.2543 8.95349 17.2543H13.0465C14.9976 17.2543 16.3837 17.2527 17.4353 17.1105C18.4648 16.9713 19.0577 16.7103 19.4904 16.275C19.9237 15.8395 20.1836 15.2428 20.3221 14.208C20.4635 13.151 20.4651 11.7578 20.4651 9.79718C20.4651 9.37113 20.8087 9.02575 21.2326 9.02575C21.6564 9.02575 22 9.37113 22 9.79718V9.85516C22 11.7448 22 13.2419 21.8432 14.4136C21.6819 15.6196 21.3419 16.5958 20.576 17.3657C19.8105 18.1357 18.8394 18.4774 17.6399 18.6396C16.4742 18.7972 14.9846 18.7972 13.1043 18.7972H8.89573C7.01537 18.7972 5.52584 18.7972 4.36013 18.6396C3.16043 18.4774 2.18933 18.1357 1.42381 17.3655C0.658058 16.5957 0.318116 15.6198 0.156763 14.414C-2.29114e-05 13.2424 -1.00572e-05 11.7454 6.22729e-06 9.85524V9.73909C-1.00572e-05 7.84797 -2.29296e-05 6.35044 0.156762 5.17867C0.318109 3.97279 0.658063 2.99701 1.42404 2.22758M1.42404 2.22758C2.18955 1.45823 3.16076 1.11663 4.36021 0.95461C5.52589 0.797151 7.01539 0.797164 8.89579 0.797181H13.1042C14.9846 0.797164 16.4741 0.797151 17.6398 0.95461C18.8394 1.11665 19.8104 1.45806 20.576 2.22758C21.4442 3.10032 21.7656 4.23709 21.8985 5.67532C21.9377 6.09954 21.6273 6.47538 21.2053 6.51479C20.7833 6.55419 20.4094 6.24223 20.3702 5.81801C20.2493 4.50995 19.9813 3.81175 19.4906 3.31855C19.0579 2.88361 18.465 2.6228 17.4354 2.48372C16.3838 2.34167 14.9975 2.34004 13.0465 2.34004H8.95349C7.00246 2.34004 5.61622 2.34167 4.56463 2.48372" fill="black"/>
<path fill-rule="evenodd" clip-rule="evenodd" d="M16.6279 5.42575C16.2041 5.42575 15.8605 5.77113 15.8605 6.19718C15.8605 6.62323 16.2041 6.96861 16.6279 6.96861C17.0518 6.96861 17.3954 6.62323 17.3954 6.19718C17.3954 5.77113 17.0518 5.42575 16.6279 5.42575ZM14.3256 6.19718C14.3256 4.91903 15.3564 3.88289 16.6279 3.88289C17.8995 3.88289 18.9302 4.91903 18.9302 6.19718C18.9302 7.47532 17.8995 8.51147 16.6279 8.51147C15.3564 8.51147 14.3256 7.47532 14.3256 6.19718Z" fill="black"/>
<path fill-rule="evenodd" clip-rule="evenodd" d="M3.06532 9.31543L1.27282 10.892C0.953839 11.1726 0.468998 11.1401 0.189893 10.8195C-0.0892113 10.4988 -0.0568885 10.0115 0.262088 9.73091L2.05483 8.15411C2.65071 7.63044 3.4225 7.3537 4.21356 7.38029C5.00461 7.40688 5.75607 7.7346 6.31581 8.29712L10.7054 12.7095C10.9184 12.9233 11.1996 13.0548 11.4995 13.0808C11.7994 13.1068 12.0989 13.0256 12.3451 12.8515L12.6515 12.6353C13.3623 12.1337 14.2214 11.8893 15.0883 11.9421C15.9551 11.9948 16.7785 12.3416 17.4238 12.9257L20.7225 15.9083C21.0377 16.1933 21.0633 16.681 20.7799 16.9978C20.4964 17.3145 20.0112 17.3403 19.6961 17.0554L16.3971 14.0725C16.0099 13.7221 15.5156 13.5138 14.9955 13.4821C14.4754 13.4504 13.9601 13.597 13.5336 13.8978M13.5336 13.8978L13.2281 14.1136C12.6864 14.4963 12.0274 14.6751 11.3677 14.618C10.7078 14.5608 10.0892 14.2715 9.6206 13.801L5.23062 9.38822C4.94617 9.10239 4.56424 8.9358 4.16226 8.92229C3.76035 8.90878 3.36811 9.04944 3.06532 9.31543" fill="black"/>
</g>
</g>
</svg>
