<svg width="32" height="34" viewBox="0 0 32 34" fill="none" xmlns="http://www.w3.org/2000/svg">
<g id="icon">
<g id="Vector">
<path d="M19.18 1.40148C21.367 0.402162 23.7752 3.26088 22.3663 5.21856C21.5226 6.79945 19.0899 6.92232 18.066 5.47249C16.9602 4.17828 17.6073 1.99125 19.18 1.40148Z" fill="#414141"/>
<path d="M0.520431 8.05271C1.83921 6.07864 4.93546 6.61107 6.29519 8.26568C7.08155 9.5435 7.42557 11.0261 8.0481 12.3776C9.00647 13.6227 10.4317 14.3845 11.6686 15.3101C13.0283 15.0643 14.3799 14.8022 15.715 14.491C17.3041 11.9763 17.8939 7.57762 21.4406 7.27455C25.4461 8.50323 29.2632 11.0834 30.4345 15.3183C31.4175 16.6616 30.0332 17.5708 28.9437 18.0377C27.7478 15.7688 26.5601 13.4589 24.8236 11.5421C25.5936 15.8097 26.298 20.0855 27.1663 24.3285C27.8789 27.4084 32.769 29.104 31.442 32.4869C31.0161 32.5443 30.1642 32.6589 29.7383 32.7081C27.7806 30.947 26.1342 28.8746 24.5041 26.8105C22.9888 25.0657 23.0871 22.6248 22.5628 20.4951C21.2768 21.9121 19.7615 23.1818 18.7867 24.8446C18.5492 27.2282 18.8195 29.6446 18.541 32.0282C18.3198 33.8303 15.2563 33.4371 15.5266 31.5941C15.371 28.6207 15.2236 25.5982 15.6823 22.6493C16.7471 20.7326 18.3935 19.25 19.8679 17.6609C19.5731 16.4241 19.2782 15.1872 18.9915 13.9503C18.4836 14.9415 17.9676 15.9244 17.4515 16.9155C15.5266 17.3169 13.6017 17.751 11.644 17.9231C11.0461 17.235 10.5874 16.465 10.2597 15.605C8.56414 14.0241 6.45083 13.3196 4.14911 13.5654C1.42146 13.8602 -1.12599 10.4691 0.520431 8.05271ZM2.06037 8.05271C-0.814728 9.95306 3.10884 13.9258 5.63171 12.4186C7.76141 10.2971 4.46038 6.90595 2.06037 8.05271Z" fill="#414141"/>
<path d="M2.02769 17.0056C3.68231 16.334 4.87002 17.3005 4.09186 19.037C2.44544 19.6678 1.61814 18.562 2.02769 17.0056Z" fill="#414141"/>
</g>
</g>
</svg>
