<svg width="32" height="34" viewBox="0 0 32 34" fill="none" xmlns="http://www.w3.org/2000/svg">
<g id="icon">
<g id="Vector">
<path d="M19.9496 1.56234C22.0166 0.330462 24.8358 2.40563 24.3315 4.75364C24.0669 6.90322 21.2559 8.02761 19.5693 6.69653C17.7422 5.50599 17.9985 2.48831 19.9496 1.56234Z" fill="#414141"/>
<path d="M4.0594 10.45C8.92902 9.12722 13.8648 7.73826 18.875 7.13472C21.5619 8.54022 21.9009 12.1201 23.2651 14.6004C25.456 14.898 28.4654 13.8232 30.0693 15.6008C29.9866 16.0224 29.813 16.8574 29.7221 17.2791C27.0186 17.7917 24.1993 17.7917 21.4875 17.337C20.669 16.0968 20.0738 14.7244 19.4289 13.3933C18.3706 15.1708 17.3041 16.9484 16.2293 18.7094C17.7754 20.3381 19.7431 21.7105 20.6856 23.8022C20.512 25.9353 19.8423 27.9939 19.3545 30.0774C20.6194 30.7966 21.8761 31.5242 23.1245 32.2765C20.76 33.7565 17.8498 32.9628 15.2289 33.1281C15.8573 30.6148 16.4856 28.0931 17.1222 25.5798C15.6175 24.0916 14.1128 22.6034 12.6164 21.1153C11.6656 22.496 10.9877 24.1743 9.61524 25.216C7.82116 25.5054 6.00229 25.4144 4.19168 25.4558C3.56334 26.8778 2.935 28.2998 2.27359 29.7053C1.20707 27.2746 0.55393 24.6951 0 22.0991C2.37281 22.0991 4.74561 22.0991 7.11842 22.0991C9.35067 18.4035 11.5912 14.7244 13.7986 11.0205C10.8223 11.6902 7.90384 12.6162 4.87789 13.0543C3.38145 13.7571 2.36454 10.6733 4.0594 10.45Z" fill="#414141"/>
<path d="M26.5556 23.0581C28.6225 21.8262 31.4583 23.8931 30.9457 26.2329C30.706 28.4486 27.7131 29.5895 26.0761 28.0766C24.3399 26.8695 24.6789 23.951 26.5556 23.0581Z" fill="#414141"/>
</g>
</g>
</svg>
