<svg width="32" height="33" viewBox="0 0 32 33" fill="none" xmlns="http://www.w3.org/2000/svg">
<g id="icon">
<g id="Vector">
<path d="M12.4185 4.18518C12.4819 2.08773 14.8009 0.409776 16.7955 1.18544C19.1462 2.10356 21.2437 3.54408 23.4203 4.81046C27.2748 6.51216 25.8343 11.4194 26.3963 14.7753C28.3275 16.0813 31.351 16.7382 32 19.2393C31.6517 19.4688 30.9552 19.92 30.5991 20.1495C28.0821 19.0019 25.5731 17.6959 23.4598 15.8992C22.6604 14.3558 22.6288 12.575 22.3913 10.897C20.8875 10.0185 19.3916 9.12408 17.9036 8.22178C18.1331 10.0976 19.7082 12.3138 18.426 14.0788C15.4737 15.4085 12.3394 16.4137 9.16552 17.0706C7.47173 17.0944 6.94935 15.0523 7.83582 13.8572C9.8462 12.67 12.1732 12.1792 14.3814 11.4985C13.6454 9.09242 12.6164 6.71795 12.4185 4.18518Z" fill="#414141"/>
<path d="M27.7022 6.90796C30.2428 4.83426 33.5038 9.00541 31.0027 11.0079C28.4145 13.5327 24.647 8.83128 27.7022 6.90796Z" fill="#414141"/>
<path d="M0 13.2557C9.84613 18.5665 19.3044 24.574 29.0318 30.0986C30.0212 29.8374 31.0106 29.592 31.9999 29.3466C31.153 30.1144 30.3536 31.4441 28.9844 31.08C26.6969 30.3202 24.7341 28.8559 22.6604 27.6608C15.8535 23.6875 9.09422 19.6271 2.24783 15.7093C1.22681 15.179 0.411575 14.3558 0 13.2557Z" fill="#414141"/>
</g>
</g>
</svg>
