<svg width="21" height="22" viewBox="0 0 21 22" fill="none" xmlns="http://www.w3.org/2000/svg">
<g id="icon" clip-path="url(#clip0_5_564)">
<g id="Group">
<path id="Vector" d="M10.5001 3.25702L9.98552 3V3.00172L9.9838 3.00402L9.98035 3.0115L9.96827 3.03622C9.90815 3.16477 9.85254 3.29538 9.80152 3.4278C9.67461 3.75569 9.57537 4.09363 9.50482 4.43807C9.35302 5.19765 9.303 6.32293 10.0936 7.11355C10.453 7.47293 10.503 8.07265 10.3673 8.75058C10.287 9.14154 10.1616 9.52185 9.99357 9.8839L9.98667 9.89827L9.98552 9.9L10.5001 10.157C11.0142 10.414 11.0148 10.4135 11.0148 10.4135V10.4123L11.0165 10.41L11.0199 10.4025L11.032 10.3778L11.0723 10.2916C11.2611 9.87007 11.403 9.42908 11.4955 8.97655C11.6473 8.2164 11.6973 7.09113 10.9067 6.3005C10.5473 5.94112 10.4973 5.3414 10.633 4.66347C10.7133 4.27251 10.8387 3.8922 11.0067 3.53015L11.0136 3.51577L11.0148 3.51405L10.5001 3.25702Z" fill="#253871"/>
<path id="Vector_2" fill-rule="evenodd" clip-rule="evenodd" d="M-1 13.8946C-1 13.7421 -0.93942 13.5958 -0.831586 13.488C-0.723753 13.3802 -0.5775 13.3196 -0.425 13.3196H21.425C21.5775 13.3196 21.7238 13.3802 21.8316 13.488C21.9394 13.5958 22 13.7421 22 13.8946C22 14.0471 21.9394 14.1933 21.8316 14.3012C21.7238 14.409 21.5775 14.4696 21.425 14.4696H19.7C19.7 15.6896 19.2154 16.8596 18.3527 17.7223C17.49 18.5849 16.32 19.0696 15.1 19.0696H5.9C4.68 19.0696 3.50998 18.5849 2.64731 17.7223C1.78464 16.8596 1.3 15.6896 1.3 14.4696H-0.425C-0.5775 14.4696 -0.723753 14.409 -0.831586 14.3012C-0.93942 14.1933 -1 14.0471 -1 13.8946ZM2.45 14.4696H18.55C18.55 15.3846 18.1865 16.2621 17.5395 16.9091C16.8925 17.5561 16.015 17.9196 15.1 17.9196H5.9C4.985 17.9196 4.10748 17.5561 3.46048 16.9091C2.81348 16.2621 2.45 15.3846 2.45 14.4696Z" fill="#253871"/>
<path id="Vector_3" d="M5.42259 4.37305L5.89984 4.69505C6.37652 5.01647 6.37709 5.0159 6.37709 5.0159L6.36962 5.0274C6.31915 5.10787 6.27197 5.19036 6.22817 5.27465C6.11946 5.481 6.03273 5.6982 5.96942 5.92267C5.83142 6.43557 5.88087 6.84037 6.24197 7.10717C7.17462 7.79832 7.12517 8.8316 6.94002 9.51642C6.85539 9.82074 6.73878 10.1153 6.59214 10.395C6.53215 10.5104 6.4673 10.6232 6.39779 10.7331L6.38629 10.7515L6.38342 10.7555L6.37882 10.7624L6.37767 10.7647L6.37709 10.7653C6.37709 10.7653 6.37652 10.7665 5.89984 10.4445C5.42317 10.1225 5.42259 10.123 5.42259 10.123L5.43007 10.1121L5.46112 10.0627C5.49982 9.99782 5.53663 9.93185 5.57152 9.86487C5.66064 9.69352 5.76299 9.46352 5.83027 9.21627C5.96827 8.70337 5.91882 8.29915 5.55772 8.03177C4.62507 7.34062 4.67452 6.30792 4.85967 5.62252C4.95454 5.27062 5.09484 4.96127 5.20754 4.74392C5.27173 4.62089 5.34137 4.50079 5.41627 4.38397L5.42029 4.37707L5.42202 4.3742L5.42259 4.37305ZM15.6748 4.69447C15.1982 4.37247 15.1976 4.37305 15.1976 4.37305V4.3742L15.1953 4.37707L15.1907 4.38397C15.1147 4.49999 15.0452 4.62016 14.9825 4.74392C14.8698 4.96127 14.7295 5.27062 14.6347 5.62252C14.4495 6.30735 14.4001 7.34062 15.3327 8.03177C15.6938 8.29915 15.7433 8.70337 15.6047 9.21627C15.538 9.46352 15.4356 9.69352 15.3459 9.86487C15.3024 9.94919 15.2554 10.0317 15.2051 10.1121L15.1982 10.1236L15.6748 10.4445C16.1515 10.7665 16.1521 10.7653 16.1521 10.7653V10.7647L16.1544 10.7624L16.159 10.7555L16.1676 10.7412L16.1734 10.7331C16.2429 10.6232 16.3077 10.5104 16.3677 10.395C16.5139 10.1151 16.6303 9.82063 16.715 9.51642C16.9002 8.8316 16.9496 7.79832 16.017 7.10717C15.6559 6.8398 15.6064 6.43557 15.745 5.92267C15.8117 5.67542 15.914 5.44542 16.0037 5.27407C16.0474 5.18979 16.0944 5.10731 16.1446 5.02682L16.1515 5.0159L15.6748 4.69447Z" fill="#253871"/>
</g>
</g>
<defs>
<clipPath id="clip0_5_564">
<rect width="21" height="21" fill="white" transform="translate(0 0.5)"/>
</clipPath>
</defs>
</svg>
