<svg width="80" height="56" viewBox="0 0 80 56" fill="none" xmlns="http://www.w3.org/2000/svg">
<g id="icon">
<path id="Union" fill-rule="evenodd" clip-rule="evenodd" d="M51.8663 2.08924C52.5573 2.78017 52.5573 3.90038 51.8663 4.59131L44.2712 12.1864H54.1538C59.0516 12.1864 63 16.1349 63 21.0326V38.7249C63 43.6226 59.0516 47.571 54.1538 47.571H25.8462C20.9484 47.571 17 43.6226 17 38.7249V21.0326C17 16.1349 20.9484 12.1864 25.8462 12.1864H35.7288L28.1337 4.59131C27.4428 3.90038 27.4428 2.78017 28.1337 2.08924C28.8246 1.39831 29.9449 1.39831 30.6358 2.08924L40 11.4535L49.3643 2.08924C50.0552 1.39831 51.1754 1.39831 51.8663 2.08924ZM20.5385 21.0326C20.5385 18.0891 22.9027 15.7249 25.8462 15.7249H54.1538C57.0973 15.7249 59.4615 18.0891 59.4615 21.0326V38.7249C59.4615 41.6684 57.0973 44.0326 54.1538 44.0326H25.8462C22.9027 44.0326 20.5385 41.6684 20.5385 38.7249V21.0326ZM32.923 51.1095C31.9459 51.1095 31.1538 51.9016 31.1538 52.8787C31.1538 53.8559 31.9459 54.648 32.923 54.648H47.0769C48.054 54.648 48.8461 53.8559 48.8461 52.8787C48.8461 51.9016 48.054 51.1095 47.0769 51.1095H32.923Z" fill="#253871"/>
</g>
</svg>
