<svg width="21" height="21" viewBox="0 0 21 21" fill="none" xmlns="http://www.w3.org/2000/svg">
<g id="Frame 67">
<path id="icon" fill-rule="evenodd" clip-rule="evenodd" d="M10.6345 0.596938C11.5933 0.403515 12.587 0.503383 13.4894 0.883474C14.3916 1.26352 15.1611 1.90616 15.7016 2.7286C16.2421 3.55094 16.5298 4.5166 16.5295 5.50354C16.5293 6.15894 16.402 6.80809 16.1547 7.41404C15.9074 8.02 15.5448 8.57118 15.0871 9.03585C14.6294 9.50055 14.0855 9.86964 13.4863 10.1216C12.8871 10.3735 12.2445 10.5032 11.5954 10.503C10.6176 10.5026 9.66271 10.2077 8.85151 9.65664C8.04044 9.10567 7.40987 8.32378 7.03805 7.41096C6.66626 6.49823 6.56938 5.49455 6.75927 4.52642C6.94916 3.55826 7.41762 2.66771 8.10691 1.9679C8.7963 1.268 9.67571 0.79035 10.6345 0.596938ZM12.5326 3.19076C12.086 3.00262 11.595 2.95343 11.1214 3.04897C10.6478 3.14452 10.2113 3.38088 9.86766 3.72972C9.52394 4.07868 9.28872 4.52453 9.19322 5.01141C9.09772 5.49834 9.14657 6.00301 9.3332 6.46119C9.5198 6.91928 9.83527 7.30928 10.2382 7.58299C10.641 7.85663 11.1136 8.00213 11.5962 8.0023C11.9167 8.00241 12.2344 7.93838 12.5311 7.81363C12.8279 7.68887 13.0982 7.50568 13.3264 7.27404C13.5546 7.04236 13.7361 6.76677 13.8602 6.46273C13.9843 6.15868 14.0483 5.83243 14.0484 5.50272C14.0486 5.006 13.9037 4.52118 13.6332 4.10963C13.3628 3.69818 12.9794 3.37894 12.5326 3.19076ZM5.64152 13.2205C6.56599 12.2813 7.82195 11.7518 9.13366 11.7518H14.0579C15.3696 11.7518 16.6256 12.2813 17.55 13.2204C18.4742 14.1593 18.9916 15.4306 18.9916 16.7541V20.5008H4.19995V16.7541C4.19995 15.4306 4.71739 14.1593 5.64152 13.2205ZM9.13366 14.2525C8.48639 14.2525 7.8636 14.5136 7.40285 14.9817C6.94178 15.4501 6.68101 16.0875 6.68101 16.7541V18.0001H16.5106V16.7541C16.5106 16.0875 16.2498 15.4501 15.7887 14.9817C15.328 14.5136 14.7052 14.2525 14.0579 14.2525H9.13366Z" fill="url(#paint0_linear_33_1718)"/>
</g>
<defs>
<linearGradient id="paint0_linear_33_1718" x1="4.19995" y1="10.5008" x2="18.9916" y2="10.5008" gradientUnits="userSpaceOnUse">
<stop stop-color="#1E3C72"/>
<stop offset="1" stop-color="#2A5298"/>
</linearGradient>
</defs>
</svg>
