<svg width="80" height="56" viewBox="0 0 80 56" fill="none" xmlns="http://www.w3.org/2000/svg">
<g id="icon">
<path id="Vector" d="M39.9987 13.4941C40.9761 13.4941 41.9315 13.2009 42.7441 12.6515C43.5567 12.1021 44.1901 11.3212 44.5641 10.4076C44.9381 9.49393 45.0359 8.4886 44.8453 7.51869C44.6546 6.54879 44.184 5.65787 43.4929 4.95861C42.8018 4.25935 41.9213 3.78314 40.9628 3.59022C40.0042 3.39729 39.0107 3.49631 38.1077 3.87475C37.2048 4.25318 36.433 4.89405 35.8901 5.71629C35.3471 6.53854 35.0573 7.50524 35.0573 8.49414C35.0573 9.82023 35.5779 11.092 36.5046 12.0297C37.4313 12.9674 38.6882 13.4941 39.9987 13.4941ZM58.5293 48.4941H56.0585V35.9941C56.0585 35.3311 55.7982 34.6952 55.3349 34.2264C54.8715 33.7575 54.2431 33.4941 53.5878 33.4941H41.2341V28.4941H53.5878C54.2431 28.4941 54.8715 28.2308 55.3349 27.7619C55.7982 27.2931 56.0585 26.6572 56.0585 25.9941C56.0585 25.3311 55.7982 24.6952 55.3349 24.2264C54.8715 23.7575 54.2431 23.4941 53.5878 23.4941H41.2341V18.4941C41.2341 17.8311 40.9738 17.1952 40.5105 16.7264C40.0471 16.2575 39.4187 15.9941 38.7634 15.9941C38.1081 15.9941 37.4797 16.2575 37.0163 16.7264C36.553 17.1952 36.2926 17.8311 36.2926 18.4941V35.9941C36.2926 36.6572 36.553 37.2931 37.0163 37.7619C37.4797 38.2308 38.1081 38.4941 38.7634 38.4941H51.1171V50.9941C51.1171 51.6572 51.3774 52.2931 51.8407 52.7619C52.3041 53.2308 52.9325 53.4941 53.5878 53.4941H58.5293C59.1845 53.4941 59.813 53.2308 60.2763 52.7619C60.7397 52.2931 61 51.6572 61 50.9941C61 50.3311 60.7397 49.6952 60.2763 49.2264C59.813 48.7575 59.1845 48.4941 58.5293 48.4941ZM41.7283 44.4941C40.4837 46.1732 38.7486 47.4135 36.7687 48.0393C34.7888 48.6651 32.6645 48.6447 30.6966 47.981C28.7288 47.3173 27.0173 46.0439 25.8044 44.3412C24.5916 42.6386 23.939 40.593 23.939 38.4941C23.9419 36.551 24.5043 34.6507 25.5573 33.0257C26.6104 31.4007 28.1086 30.1214 29.8687 29.3441C30.4716 29.0789 30.9456 28.5823 31.1866 27.9634C31.4275 27.3445 31.4156 26.6541 31.1535 26.0441C30.8914 25.4341 30.4005 24.9545 29.7889 24.7107C29.1773 24.4669 28.495 24.4789 27.8921 24.7441C25.813 25.6628 23.97 27.052 22.505 28.8048C21.0401 30.5576 19.9922 32.6272 19.4422 34.8543C18.8922 37.0814 18.8547 39.4065 19.3327 41.6506C19.8106 43.8946 20.7911 45.9978 22.1988 47.798C23.6065 49.5982 25.4037 51.0475 27.4522 52.0343C29.5006 53.021 31.7455 53.5189 34.014 53.4895C36.2825 53.4602 38.5141 52.9044 40.5369 51.865C42.5597 50.8255 44.3197 49.3302 45.6814 47.4941C46.0746 46.9637 46.2434 46.297 46.1508 45.6406C46.0581 44.9842 45.7115 44.392 45.1873 43.9941C44.6631 43.5963 44.0041 43.4255 43.3554 43.5193C42.7067 43.613 42.1214 43.9637 41.7283 44.4941Z" fill="#253871"/>
</g>
</svg>
