<svg width="32" height="34" viewBox="0 0 32 34" fill="none" xmlns="http://www.w3.org/2000/svg">
<g id="icon">
<g id="Vector">
<path d="M22.167 1.53886C23.7774 0.555964 26.1213 1.81104 26.212 3.6861C26.6354 5.98455 23.5657 7.70083 21.8192 6.18113C20.1785 5.10751 20.428 2.38565 22.167 1.53886Z" fill="#414141"/>
<path d="M17.7968 7.11865C19.2182 6.95988 20.995 5.99211 22.1971 7.1867C23.6185 9.03151 24.2763 11.3224 25.2063 13.4243C27.2023 13.7191 29.9468 12.7514 31.4212 14.324C31.3607 14.7096 31.2322 15.4884 31.1641 15.8815C28.6691 16.3578 26.0606 16.4183 23.5656 15.9118C22.8549 14.8003 22.3332 13.5831 21.7737 12.3885C20.7757 13.9838 19.7626 15.5866 18.7873 17.1971C20.2011 18.679 21.993 19.934 22.8549 21.8469C22.6961 23.8051 22.1291 25.7029 21.6981 27.6082C22.9381 28.3037 24.2461 28.9842 24.987 30.2771C22.6205 30.4132 20.2465 30.4056 17.88 30.3981C18.447 28.0996 19.0216 25.8012 19.6189 23.5027C18.2429 22.1266 16.8593 20.7733 15.4757 19.4124C14.644 20.675 13.9862 22.1115 12.8294 23.1247C11.1509 23.4271 9.44222 23.3364 7.75618 23.3666C7.21937 24.6897 6.65232 26.0053 6.04746 27.2982C5.04945 25.0602 4.44459 22.6861 3.8851 20.3045C6.08527 20.3045 8.29299 20.3045 10.4932 20.2894C12.4816 16.9098 14.5684 13.5831 16.5342 10.1883C13.5552 10.8158 10.6595 11.8743 7.60497 12.0785C6.87158 11.4812 6.70525 10.7402 7.11352 9.86319C10.5612 8.56275 14.2584 8.10911 17.7968 7.11865Z" fill="#414141"/>
<path d="M1.70773 19.7526C2.91744 19.3821 3.41645 21.3933 2.18405 21.6352C0.981901 21.9981 0.482895 19.9945 1.70773 19.7526Z" fill="#414141"/>
<path d="M3.2955 27.525C2.63771 25.6197 1.20874 23.5859 2.32773 21.5596C3.17452 23.3666 3.76426 25.2795 4.54301 27.1167C4.37668 27.4721 4.04401 28.1828 3.87011 28.5381C3.57524 28.334 2.97795 27.9182 2.67552 27.714L3.2955 27.525Z" fill="#414141"/>
<path d="M17.1164 33.1955C16.5342 30.6854 19.8685 32.3034 21.2823 31.9329C22.9684 31.9329 25.229 30.9349 26.0683 32.9989C24.4805 33.1199 22.8777 33.067 21.305 32.8099C19.9063 32.8553 18.5 32.9611 17.1164 33.1955Z" fill="#414141"/>
</g>
</g>
</svg>
