<svg width="21" height="22" viewBox="0 0 21 22" fill="none" xmlns="http://www.w3.org/2000/svg">
<g id="icon" clip-path="url(#clip0_5_508)">
<path id="Vector" d="M19.6 12.0734H2.8V4.21794C2.79919 3.92211 2.85721 3.62906 2.9707 3.35574C3.0842 3.08243 3.25091 2.83429 3.46119 2.62568L3.47869 2.60822C3.80825 2.27997 4.23136 2.06121 4.69022 1.98184C5.14909 1.90246 5.62134 1.96634 6.04244 2.16474C5.64474 2.82433 5.47944 3.59759 5.5728 4.36164C5.66617 5.1257 6.01284 5.83671 6.55773 6.38169L7.03684 6.85961L6.15497 7.73934L7.14486 8.72677L8.02672 7.84709L12.9131 2.97289L13.795 2.09321L12.8051 1.10573L11.9231 1.98541L11.444 1.5075C10.8704 0.936896 10.1143 0.585157 9.30737 0.513574C8.50046 0.441991 7.69396 0.655101 7.02839 1.11577C6.32656 0.673643 5.49485 0.482773 4.6699 0.574517C3.84494 0.66626 3.07579 1.03516 2.48881 1.62062L2.47131 1.63807C2.1306 1.97607 1.86048 2.37813 1.67659 2.82096C1.4927 3.2638 1.39869 3.73862 1.4 4.21794V12.0734H0V13.47H1.4V14.8097C1.39997 14.9223 1.41817 15.0342 1.4539 15.1409L2.75625 19.0381C2.82575 19.2468 2.95939 19.4283 3.13819 19.5569C3.31699 19.6854 3.53185 19.7545 3.75226 19.7543H4.31664L3.80625 21.5H5.26457L5.775 19.7543H14.8794L15.4044 21.5H16.8656L16.3406 19.7543H17.2476C17.468 19.7546 17.6829 19.6855 17.8617 19.5569C18.0406 19.4283 18.1742 19.2468 18.2437 19.0381L19.546 15.1409C19.5817 15.0342 19.6 14.9223 19.6 14.8097V13.47H21V12.0734H19.6ZM7.54775 2.49497C7.93345 2.11107 8.45606 1.89546 9.00093 1.89546C9.54579 1.89546 10.0684 2.11107 10.4541 2.49497L10.9331 2.97289L8.02686 5.87196L7.54775 5.39413C7.16291 5.00937 6.94679 4.48806 6.94679 3.94455C6.94679 3.40104 7.16291 2.87973 7.54775 2.49497ZM18.2 14.753L16.9955 18.3578H4.00452L2.8 14.753V13.47H18.2V14.753Z" fill="#253871"/>
</g>
<defs>
<clipPath id="clip0_5_508">
<rect width="21" height="21" fill="white" transform="translate(0 0.5)"/>
</clipPath>
</defs>
</svg>
