<svg width="80" height="56" viewBox="0 0 80 56" fill="none" xmlns="http://www.w3.org/2000/svg">
<g id="icon">
<path id="Vector" d="M67 24.9112V16.5712C67 11.6212 62.95 7.57117 58 7.57117H46C43.69 7.57117 41.59 8.47117 40 9.91117C38.41 8.47117 36.31 7.57117 34 7.57117H22C17.05 7.57117 13 11.6212 13 16.5712V24.9112C11.17 26.5612 10 28.9312 10 31.5712V49.5712H16V43.5712H64V49.5712H70V31.5712C70 28.9312 68.83 26.5612 67 24.9112ZM46 13.5712H58C59.65 13.5712 61 14.9212 61 16.5712V22.5712H43V16.5712C43 14.9212 44.35 13.5712 46 13.5712ZM19 16.5712C19 14.9212 20.35 13.5712 22 13.5712H34C35.65 13.5712 37 14.9212 37 16.5712V22.5712H19V16.5712ZM16 37.5712V31.5712C16 29.9212 17.35 28.5712 19 28.5712H61C62.65 28.5712 64 29.9212 64 31.5712V37.5712H16Z" fill="#253871"/>
</g>
</svg>
