<svg width="80" height="56" viewBox="0 0 80 56" fill="none" xmlns="http://www.w3.org/2000/svg">
<g id="icon">
<path id="Vector (Stroke)" fill-rule="evenodd" clip-rule="evenodd" d="M29 8.57117C27.0109 8.57117 25.1032 9.36134 23.6967 10.7679C22.8982 11.5664 22.2983 12.5264 21.9289 13.5712H56.0711C55.7017 12.5264 55.1018 11.5664 54.3033 10.7679C52.8968 9.36134 50.9891 8.57117 49 8.57117H29ZM56.5 18.5712H41.5V28.5712H56.5V18.5712ZM56.5 33.5712H21.5V41.0712C21.5 41.7342 21.7634 42.3701 22.2322 42.8389C22.7011 43.3078 23.337 43.5712 24 43.5712H54C54.663 43.5712 55.2989 43.3078 55.7678 42.8389C56.2366 42.3701 56.5 41.7342 56.5 41.0712V33.5712ZM21.5 28.5712H36.5V18.5712H21.5V28.5712ZM20.1612 7.23233C22.5054 4.88813 25.6848 3.57117 29 3.57117H49C52.3152 3.57117 55.4946 4.88813 57.8388 7.23233C60.183 9.57654 61.5 12.756 61.5 16.0712V41.0712C61.5 43.0603 60.7098 44.9679 59.3033 46.3745C58.5048 47.173 57.5448 47.7728 56.5 48.1422V49.8212C56.5 50.8157 56.1049 51.7696 55.4016 52.4728C54.6984 53.1761 53.7446 53.5712 52.75 53.5712C51.7554 53.5712 50.8016 53.1761 50.0984 52.4728C49.3951 51.7696 49 50.8157 49 49.8212V48.5712H29V49.8212C29 50.8157 28.6049 51.7696 27.9017 52.4728C27.1984 53.1761 26.2446 53.5712 25.25 53.5712C24.2554 53.5712 23.3016 53.1761 22.5983 52.4728C21.8951 51.7696 21.5 50.8157 21.5 49.8212V48.1422C20.4552 47.7728 19.4952 47.173 18.6967 46.3745C17.2902 44.9679 16.5 43.0603 16.5 41.0712V16.0712C16.5 12.756 17.817 9.57654 20.1612 7.23233ZM26.5 38.5712C26.5 37.1905 27.6193 36.0712 29 36.0712H29.0025C30.3832 36.0712 31.5025 37.1905 31.5025 38.5712C31.5025 39.9519 30.3832 41.0712 29.0025 41.0712H29C27.6193 41.0712 26.5 39.9519 26.5 38.5712Z" fill="#253871"/>
</g>
</svg>
