<svg width="32" height="34" viewBox="0 0 32 34" fill="none" xmlns="http://www.w3.org/2000/svg">
<g id="icon">
<g id="Vector">
<path d="M26.4908 2.80528C26.6441 2.0457 27.0832 1.50911 27.8079 1.19553C26.4839 7.05615 24.1145 13.5579 18.5257 16.5893C19.3898 14.6868 21.334 13.6764 22.456 11.976C24.3584 9.20249 25.6476 6.05267 26.4908 2.80528Z" fill="#414141"/>
<path d="M21.2295 2.37323C22.2957 1.62061 22.895 2.7565 23.5222 3.46033C21.8567 5.96904 20.3305 8.56835 18.672 11.0771C17.2225 13.1189 17.9055 15.7182 17.8985 18.0248C15.9124 17.983 13.9264 17.969 11.9473 17.969C11.9403 16.415 11.9333 14.861 11.9473 13.307C10.5117 13.8157 9.08315 14.3523 7.65458 14.8959C6.48385 12.6102 3.15981 10.4708 4.19813 7.73211C6.60928 6.98646 7.30615 10.3454 8.57444 11.7809C11.0483 10.645 13.6476 9.5788 16.4351 9.76695C18.0866 7.3349 19.3758 4.65894 21.2295 2.37323Z" fill="#414141"/>
<path d="M12.8879 5.3349C14.2259 3.89936 16.9437 5.091 16.8252 7.03525C16.9158 8.70773 14.874 9.88542 13.4315 9.11191C12.0238 8.45685 11.7242 6.35232 12.8879 5.3349Z" fill="#414141"/>
<path d="M17.3828 18.8889C18.5814 17.6067 20.4141 15.969 22.2539 16.7565C23.2643 18.7913 23.6545 21.0771 24.1214 23.2861C24.4211 24.1781 23.9821 25.1049 23.0692 25.3976C20.5883 25.5509 20.9507 22.1433 20.2608 20.5056C18.2957 21.5718 16.2608 22.5753 14.003 22.7774C12.6302 25.5509 11.6406 28.5056 10.1911 31.2443C9.74514 32.4708 7.86361 32.0039 7.50124 30.9725C6.91587 30.0527 7.5988 29.0562 7.89148 28.1711C9.25037 25.098 10.6093 22.0178 11.9472 18.9377C13.7591 18.9516 15.5709 18.9447 17.3828 18.8889Z" fill="#414141"/>
<path d="M16.8252 33.1607C17.2851 29.6276 15.8008 25.5718 17.6754 22.4011C17.9193 25.9969 17.766 29.5927 17.8008 33.1955L16.8252 33.1607Z" fill="#414141"/>
</g>
</g>
</svg>
