<svg width="21" height="22" viewBox="0 0 21 22" fill="none" xmlns="http://www.w3.org/2000/svg">
<g id="icon">
<path id="Vector" d="M14.3923 6.84802C14.2134 6.84802 14.0585 6.78405 13.9277 6.65612C13.797 6.52818 13.7316 6.37668 13.7316 6.20162C13.7316 5.85821 13.797 5.52828 13.9277 5.21181C14.0585 4.89534 14.2512 4.61591 14.5059 4.37351L15.3215 3.56551C15.5831 3.30964 15.7139 3.00327 15.7139 2.6464C15.7139 2.47134 15.7793 2.31983 15.91 2.1919C16.0408 2.06397 16.1957 2 16.3746 2C16.5536 2 16.7085 2.06397 16.8392 2.1919C16.97 2.31983 17.0354 2.47134 17.0354 2.6464C17.0354 2.9898 16.97 3.31974 16.8392 3.63621C16.7085 3.95267 16.5157 4.23211 16.2611 4.47451L15.4454 5.28251C15.1839 5.53838 15.0531 5.84475 15.0531 6.20162C15.0531 6.37668 14.9877 6.52818 14.8569 6.65612C14.7262 6.78405 14.5713 6.84802 14.3923 6.84802ZM10.4277 6.84802C10.2488 6.84802 10.0939 6.78405 9.96313 6.65612C9.83235 6.52818 9.76696 6.37668 9.76696 6.20162C9.76696 5.85821 9.83235 5.52828 9.96313 5.21181C10.0939 4.89534 10.2866 4.61591 10.5413 4.37351L11.3569 3.56551C11.6185 3.30964 11.7493 3.00327 11.7493 2.6464C11.7493 2.47134 11.8147 2.31983 11.9454 2.1919C12.0762 2.06397 12.2311 2 12.41 2C12.589 2 12.7439 2.06397 12.8746 2.1919C13.0054 2.31983 13.0708 2.47134 13.0708 2.6464C13.0708 2.9898 13.0054 3.31974 12.8746 3.63621C12.7439 3.95267 12.5511 4.23211 12.2965 4.47451L11.4808 5.28251C11.2193 5.53838 11.0885 5.84475 11.0885 6.20162C11.0885 6.37668 11.0231 6.52818 10.8923 6.65612C10.7616 6.78405 10.6067 6.84802 10.4277 6.84802ZM19.0177 8.62563C19.293 8.62563 19.5511 8.67613 19.792 8.77713C20.0329 8.87813 20.2429 9.01616 20.4218 9.19123C20.6008 9.36629 20.7419 9.57166 20.8451 9.80733C20.9484 10.043 21 10.2955 21 10.5648V14.4432C21 14.7126 20.9484 14.9651 20.8451 15.2008C20.7419 15.4364 20.6008 15.6418 20.4218 15.8169C20.2429 15.9919 20.0329 16.13 19.792 16.231C19.5511 16.332 19.293 16.3825 19.0177 16.3825H18.4292C18.4154 16.4296 18.4051 16.4734 18.3982 16.5138C18.3913 16.5542 18.3776 16.5946 18.3569 16.635V17.0289C18.3569 17.4733 18.2709 17.8907 18.0988 18.2813C17.9267 18.6718 17.6893 19.0152 17.3864 19.3115C17.0836 19.6077 16.7325 19.84 16.3333 20.0084C15.9341 20.1767 15.5074 20.2609 15.0531 20.2609H11.0885C10.5516 20.2609 10.056 20.143 9.60177 19.9074C9.14749 19.6717 8.76893 19.3586 8.46608 18.9681H3.30383C2.84956 18.9681 2.42281 18.8839 2.0236 18.7156C1.62439 18.5472 1.27335 18.3183 0.970501 18.0288C0.66765 17.7392 0.430187 17.3958 0.258112 16.9986C0.0860374 16.6013 0 16.1805 0 15.7361V15.0897H2.64307C2.64307 14.5577 2.74631 14.0561 2.9528 13.5847C3.15929 13.1134 3.44494 12.7027 3.80973 12.3525C4.17453 12.0024 4.5944 11.723 5.06932 11.5142C5.54425 11.3055 6.05703 11.2045 6.60767 11.2112C6.81416 11.2112 7.01377 11.2281 7.20649 11.2617C7.39921 11.2954 7.59194 11.3425 7.78466 11.4031V7.33282H18.3569V8.62563H19.0177ZM6.60767 12.504C6.24287 12.504 5.90216 12.5714 5.58555 12.706C5.26893 12.8407 4.98673 13.0259 4.73894 13.2615C4.49115 13.4972 4.30187 13.7699 4.17109 14.0796C4.04031 14.3894 3.97148 14.726 3.9646 15.0897H7.78466V12.7868C7.6057 12.6993 7.41986 12.632 7.22714 12.5848C7.03441 12.5377 6.82793 12.5108 6.60767 12.504ZM3.30383 17.6753H7.85693C7.80875 17.48 7.78466 17.2645 7.78466 17.0289V16.3825H1.4351C1.50393 16.571 1.60029 16.7427 1.72419 16.8976C1.84808 17.0524 1.98918 17.1905 2.14749 17.3117C2.3058 17.4329 2.48476 17.5204 2.68437 17.5743C2.88397 17.6281 3.09046 17.6618 3.30383 17.6753ZM8.08407 18.352V18.3621L8.0944 18.3823V18.3722L8.08407 18.352ZM17.0354 17.0289V8.62563H9.10619V17.0289C9.10619 17.2982 9.15782 17.5507 9.26106 17.7864C9.36431 18.022 9.50541 18.2274 9.68437 18.4025C9.86332 18.5775 10.0733 18.7156 10.3142 18.8166C10.5551 18.9176 10.8132 18.9681 11.0885 18.9681H15.0531C15.3284 18.9681 15.5865 18.9176 15.8274 18.8166C16.0683 18.7156 16.2783 18.5775 16.4572 18.4025C16.6362 18.2274 16.7773 18.022 16.8805 17.7864C16.9838 17.5507 17.0354 17.2982 17.0354 17.0289ZM19.6785 14.4432V10.5648C19.6785 10.3898 19.6131 10.2383 19.4823 10.1103C19.3515 9.9824 19.1967 9.91843 19.0177 9.91843H18.3569V15.0897H19.0177C19.1967 15.0897 19.3515 15.0257 19.4823 14.8977C19.6131 14.7698 19.6785 14.6183 19.6785 14.4432Z" fill="#253871"/>
</g>
</svg>
