<svg width="32" height="33" viewBox="0 0 32 33" fill="none" xmlns="http://www.w3.org/2000/svg">
<g id="icon">
<g id="Vector">
<path d="M1.37357 1.56492C3.16266 0.492943 4.95913 2.11199 5.75018 3.64232C12.1377 3.53882 18.5325 3.52404 24.9274 3.49446C27.0713 3.84932 27.7737 0.478157 30.0211 1.33574C32.3055 1.81627 32.7713 5.35748 30.5756 6.31856C28.6682 7.36096 27.1674 5.35009 25.7036 4.47772C24.5356 7.33139 21.8371 9.00218 19.9298 11.294C19.4123 11.8337 19.1979 12.4842 19.2792 13.2383C19.1979 19.1822 19.4566 25.1483 19.2053 31.0848C19.1387 32.5782 17.6823 32.179 16.7582 31.8758C16.7804 28.002 16.8248 24.1207 16.6917 20.2542L15.945 20.9491C15.2205 24.6086 16.5512 28.6082 15.2944 32.105L14.5108 32.2972C14.2372 32.1124 13.6902 31.7354 13.4166 31.5506C12.9657 25.0004 13.668 18.3912 13.1061 11.8558C10.9696 9.34226 8.4412 7.17613 6.39336 4.57383C4.7891 5.17266 3.45837 7.40531 1.551 6.34074C-0.459869 5.56448 -0.511619 2.51121 1.37357 1.56492ZM9.39488 4.62558C11.184 6.43684 12.766 8.49946 14.873 9.97065C18.8208 11.1979 20.7134 6.54774 23.3675 4.57383C18.7099 4.64037 14.0524 4.67733 9.39488 4.62558Z" fill="#414141"/>
<path d="M14.5256 6.00806C15.5533 4.07112 18.4956 5.32791 18.4587 7.27964C18.577 8.77301 16.9357 9.32008 16.0042 10.0963C14.947 9.05394 13.158 7.56796 14.5256 6.00806Z" fill="#414141"/>
</g>
</g>
</svg>
