<?xml version="1.0" encoding="UTF-8" standalone="no"?>
<!-- Created with Inkscape (http://www.inkscape.org/) -->

<svg
   version="1.1"
   id="svg2"
   width="224"
   height="95.999733"
   viewBox="0 0 224 95.999733"
   sodipodi:docname="footer_logo_white.ai"
   xmlns:inkscape="http://www.inkscape.org/namespaces/inkscape"
   xmlns:sodipodi="http://sodipodi.sourceforge.net/DTD/sodipodi-0.dtd"
   xmlns="http://www.w3.org/2000/svg"
   xmlns:svg="http://www.w3.org/2000/svg">
  <defs
     id="defs6">
    <clipPath
       clipPathUnits="userSpaceOnUse"
       id="clipPath20">
      <path
         d="M 0,72 H 168 V 0 H 0 Z"
         id="path18" />
    </clipPath>
    <linearGradient
       x1="0"
       y1="0"
       x2="1"
       y2="0"
       gradientUnits="userSpaceOnUse"
       gradientTransform="matrix(15.595701,0,0,15.595701,27.052038,22.39555)"
       spreadMethod="pad"
       id="linearGradient68">
      <stop
         style="stop-opacity:1;stop-color:#4790cd"
         offset="0"
         id="stop58" />
      <stop
         style="stop-opacity:1;stop-color:#4790cd"
         offset="0.17"
         id="stop60" />
      <stop
         style="stop-opacity:1;stop-color:#6b88c5"
         offset="0.35"
         id="stop62" />
      <stop
         style="stop-opacity:1;stop-color:#c676b1"
         offset="0.8"
         id="stop64" />
      <stop
         style="stop-opacity:1;stop-color:#ea6faa"
         offset="1"
         id="stop66" />
    </linearGradient>
    <linearGradient
       x1="0"
       y1="0"
       x2="1"
       y2="0"
       gradientUnits="userSpaceOnUse"
       gradientTransform="matrix(68.695229,0,0,68.695229,0.5032118,45.194527)"
       spreadMethod="pad"
       id="linearGradient94">
      <stop
         style="stop-opacity:1;stop-color:#4790cd"
         offset="0"
         id="stop84" />
      <stop
         style="stop-opacity:1;stop-color:#4790cd"
         offset="0.17"
         id="stop86" />
      <stop
         style="stop-opacity:1;stop-color:#6b88c5"
         offset="0.35"
         id="stop88" />
      <stop
         style="stop-opacity:1;stop-color:#c676b1"
         offset="0.8"
         id="stop90" />
      <stop
         style="stop-opacity:1;stop-color:#ea6faa"
         offset="1"
         id="stop92" />
    </linearGradient>
    <clipPath
       clipPathUnits="userSpaceOnUse"
       id="clipPath104">
      <path
         d="M 0,72 H 168 V 0 H 0 Z"
         id="path102" />
    </clipPath>
  </defs>
  <sodipodi:namedview
     id="namedview4"
     pagecolor="#ffffff"
     bordercolor="#000000"
     borderopacity="0.25"
     inkscape:showpageshadow="2"
     inkscape:pageopacity="0.0"
     inkscape:pagecheckerboard="0"
     inkscape:deskcolor="#d1d1d1" />
  <g
     id="g8"
     inkscape:groupmode="layer"
     inkscape:label="footer_logo_white"
     transform="matrix(1.3333333,0,0,-1.3333333,0,95.999733)">
    <g
       id="g10"
       transform="translate(1.0602,9.891)">
      <path
         d="M 0,0 V -1.176 H 3.255 V -9.8 h 1.176 v 8.624 H 7.693 V 0 Z"
         style="fill:#ffffff;fill-opacity:1;fill-rule:nonzero;stroke:none"
         id="path12" />
    </g>
    <g
       id="g14">
      <g
         id="g16"
         clip-path="url(#clipPath20)">
        <g
           id="g22"
           transform="translate(28.3444,5.292)">
          <path
             d="M 0,0 H 2.149 C 2.466,0 2.758,0.077 3.024,0.231 3.29,0.39 3.5,0.602 3.654,0.868 3.813,1.139 3.892,1.442 3.892,1.778 3.892,2.119 3.813,2.422 3.654,2.688 3.5,2.959 3.29,3.171 3.024,3.325 2.758,3.484 2.466,3.563 2.149,3.563 H 0 Z m -1.176,-5.201 v 9.8 H 2.268 C 2.791,4.599 3.262,4.471 3.682,4.214 4.107,3.957 4.443,3.61 4.69,3.171 4.942,2.737 5.068,2.252 5.068,1.715 5.068,1.244 4.975,0.814 4.788,0.427 4.601,0.04 4.345,-0.285 4.018,-0.546 3.696,-0.803 3.33,-0.98 2.919,-1.078 l 2.38,-4.123 H 3.941 L 1.603,-1.176 H 0 v -4.025 z"
             style="fill:#ffffff;fill-opacity:1;fill-rule:nonzero;stroke:none"
             id="path24" />
        </g>
        <g
           id="g26"
           transform="translate(55.9988,-0.091)">
          <path
             d="M 0,0 C -0.784,0 -1.465,0.191 -2.044,0.574 -2.618,0.957 -3.061,1.47 -3.374,2.114 -3.682,2.763 -3.836,3.481 -3.836,4.27 V 9.982 H -2.66 V 4.27 c 0,-0.56 0.103,-1.076 0.308,-1.547 0.21,-0.471 0.511,-0.847 0.903,-1.127 0.397,-0.28 0.88,-0.42 1.449,-0.42 0.579,0 1.064,0.14 1.456,0.42 0.392,0.285 0.688,0.66 0.889,1.127 C 2.55,3.194 2.653,3.71 2.653,4.27 V 9.982 H 3.829 V 4.27 C 3.829,3.677 3.74,3.122 3.563,2.604 3.386,2.091 3.129,1.638 2.793,1.246 2.462,0.854 2.06,0.548 1.589,0.329 1.118,0.11 0.588,0 0,0"
             style="fill:#ffffff;fill-opacity:1;fill-rule:nonzero;stroke:none"
             id="path28" />
        </g>
        <g
           id="g30"
           transform="translate(85.9374,9.891)">
          <path
             d="M 0,0 V -1.176 H -3.262 V -9.8 h -1.176 v 8.624 H -7.693 V 0 Z"
             style="fill:#ffffff;fill-opacity:1;fill-rule:nonzero;stroke:none"
             id="path32" />
        </g>
        <g
           id="g34"
           transform="translate(104.353,0.091)">
          <path
             d="M 0,0 V 9.8 H 1.274 L 6.167,2.128 V 9.8 H 7.343 V 0 H 6.076 l -4.9,7.672 V 0 Z"
             style="fill:#ffffff;fill-opacity:1;fill-rule:nonzero;stroke:none"
             id="path36" />
        </g>
        <g
           id="g38"
           transform="translate(134.936,1.085)">
          <path
             d="M 0,0 C 0.509,0 0.983,0.103 1.421,0.308 1.864,0.513 2.252,0.796 2.583,1.155 2.919,1.519 3.181,1.934 3.367,2.401 3.558,2.872 3.654,3.374 3.654,3.906 3.654,4.438 3.558,4.94 3.367,5.411 3.176,5.887 2.912,6.302 2.576,6.657 2.245,7.016 1.857,7.299 1.414,7.504 0.975,7.709 0.504,7.812 0,7.812 -0.509,7.812 -0.985,7.709 -1.428,7.504 -1.867,7.299 -2.254,7.014 -2.59,6.65 -2.921,6.291 -3.183,5.875 -3.374,5.404 -3.561,4.937 -3.654,4.438 -3.654,3.906 -3.654,3.369 -3.558,2.865 -3.367,2.394 -3.176,1.923 -2.914,1.507 -2.583,1.148 -2.247,0.789 -1.86,0.506 -1.421,0.301 -0.978,0.1 -0.504,0 0,0 m 0,-1.176 c -0.663,0 -1.286,0.131 -1.869,0.392 -0.583,0.266 -1.097,0.632 -1.54,1.099 -0.443,0.467 -0.791,1.006 -1.043,1.617 -0.252,0.616 -0.378,1.274 -0.378,1.974 0,0.7 0.126,1.356 0.378,1.967 0.252,0.616 0.6,1.157 1.043,1.624 0.443,0.467 0.957,0.831 1.54,1.092 C -1.286,8.855 -0.663,8.988 0,8.988 0.667,8.988 1.293,8.855 1.876,8.589 2.459,8.328 2.973,7.964 3.416,7.497 3.859,7.03 4.205,6.489 4.452,5.873 4.704,5.262 4.83,4.606 4.83,3.906 4.83,3.206 4.704,2.548 4.452,1.932 4.205,1.321 3.859,0.782 3.416,0.315 2.973,-0.152 2.459,-0.518 1.876,-0.784 1.293,-1.045 0.667,-1.176 0,-1.176"
             style="fill:#ffffff;fill-opacity:1;fill-rule:nonzero;stroke:none"
             id="path40" />
        </g>
        <g
           id="g42"
           transform="translate(161.018,0.091)">
          <path
             d="M 0,0 -3.556,9.8 H -2.31 L 0.728,1.435 3.773,9.8 H 5.012 L 1.456,0 Z"
             style="fill:#ffffff;fill-opacity:1;fill-rule:nonzero;stroke:none"
             id="path44" />
        </g>
      </g>
    </g>
    <g
       id="g46">
      <g
         id="g48">
        <g
           id="g54">
          <g
             id="g56">
            <path
               d="m 27.052,18.252 h 15.595 l -7.796,8.287 z"
               style="fill:url(#linearGradient68);stroke:none"
               id="path70" />
          </g>
        </g>
      </g>
    </g>
    <g
       id="g72">
      <g
         id="g74">
        <g
           id="g80">
          <g
             id="g82">
            <path
               d="M 32.396,72 C 29.64,71.803 26.908,71.286 24.277,70.452 v 0 C 18.262,68.481 12.837,64.814 8.722,60.032 v 0 C 4.98,55.758 2.389,50.507 1.258,44.952 v 0 C 0.551,41.904 0.48,38.759 0.511,35.644 v 0 C 0.508,29.863 0.499,24.081 0.507,18.301 v 0 h 0.001 l 16.397,17.591 c -0.063,0.374 -0.121,0.747 -0.133,1.127 v 0 c -0.384,4.544 1.109,9.155 3.887,12.761 v 0 c 3.196,4.226 8.25,7.194 13.631,7.329 v 0 c 2.981,0.123 5.98,-0.57 8.616,-1.955 v 0 c 5.339,-2.714 9.121,-8.122 10.001,-14.001 v 0 c 0.302,-1.79 0.265,-3.609 0.026,-5.404 v 0 L 69.198,18.298 c -0.006,1.499 -0.049,2.998 -0.041,4.497 v 0 c 0.004,3.445 -0.014,6.892 -0.008,10.339 v 0 c -0.02,2.756 0.112,5.526 -0.211,8.271 v 0 c -0.274,2.764 -0.918,5.49 -1.85,8.109 v 0 c -1.86,5.014 -4.875,9.6 -8.747,13.31 v 0 c -4.273,4.008 -9.566,6.993 -15.303,8.326 v 0 c -1.826,0.433 -3.687,0.716 -5.559,0.85 v 0 z"
               style="fill:url(#linearGradient94);stroke:none"
               id="path96" />
          </g>
        </g>
      </g>
    </g>
    <g
       id="g98">
      <g
         id="g100"
         clip-path="url(#clipPath104)">
        <g
           id="g106"
           transform="translate(21.6943,18.2522)">
          <path
             d="M 0,0 H 5.409 L 13.156,8.312 20.904,0 h 5.408 L 13.156,14.115 Z"
             style="fill:#ffffff;fill-opacity:1;fill-rule:nonzero;stroke:none"
             id="path108" />
        </g>
        <g
           id="g110"
           transform="translate(34.8506,55.1026)">
          <path
             d="M 0,0 -34.348,-36.85 H -21.48 L -0.013,-13.821 21.451,-36.85 H 34.348 Z"
             style="fill:#ffffff;fill-opacity:1;fill-rule:nonzero;stroke:none"
             id="path112" />
        </g>
        <g
           id="g114"
           transform="translate(78.9466,57.466)">
          <path
             d="M 0,0 H 2.822 C 3.248,0 3.637,0.106 3.988,0.317 4.34,0.528 4.62,0.813 4.828,1.171 5.036,1.528 5.141,1.927 5.141,2.367 5.141,2.806 5.036,3.216 4.828,3.575 4.62,3.932 4.34,4.217 3.988,4.428 3.635,4.64 3.248,4.745 2.822,4.745 H 0 Z M -2.994,-9.772 V 7.308 H 3.141 C 4.074,7.308 4.919,7.076 5.676,6.613 6.432,6.15 7.032,5.527 7.473,4.747 7.915,3.965 8.136,3.108 8.136,2.173 8.136,1.239 7.909,0.345 7.455,-0.431 7,-1.208 6.393,-1.826 5.632,-2.286 4.872,-2.745 4.041,-2.975 3.141,-2.975 H 0 V -9.77 h -2.994 z"
             style="fill:#ffffff;fill-opacity:1;fill-rule:nonzero;stroke:none"
             id="path116" />
        </g>
        <g
           id="g118"
           transform="translate(88.481,47.6943)">
          <path
             d="M 0,0 V 17.08 H 10.774 V 14.103 H 2.993 V 10.638 H 9.165 V 7.661 H 2.993 V 2.977 h 7.781 V 0 Z"
             style="fill:#ffffff;fill-opacity:1;fill-rule:nonzero;stroke:none"
             id="path120" />
        </g>
        <g
           id="g122"
           transform="translate(100.901,47.6943)">
          <path
             d="M 0,0 V 17.08 H 3.239 L 10.491,5.381 V 17.08 h 2.995 V 10e-4 H 10.258 L 2.993,11.7 V 10e-4 h -2.994 z"
             style="fill:#ffffff;fill-opacity:1;fill-rule:nonzero;stroke:none"
             id="path124" />
        </g>
        <g
           id="g126"
           transform="translate(130.916,47.6943)">
          <path
             d="M 0,0 V 17.08 H 2.994 V 10e-4 L 0,0.001 Z"
             style="fill:#ffffff;fill-opacity:1;fill-rule:nonzero;stroke:none"
             id="path128" />
        </g>
        <g
           id="g130"
           transform="translate(144.144,50.3542)">
          <path
             d="M 0,0 C 0.753,0 1.46,0.154 2.123,0.463 2.786,0.772 3.369,1.197 3.872,1.738 4.375,2.279 4.767,2.903 5.049,3.611 5.332,4.319 5.473,5.075 5.473,5.88 5.473,6.685 5.33,7.443 5.044,8.155 4.757,8.867 4.362,9.491 3.859,10.028 3.355,10.564 2.775,10.987 2.116,11.296 1.457,11.604 0.753,11.759 0,11.759 c -0.752,0 -1.46,-0.155 -2.123,-0.463 C -2.786,10.987 -3.369,10.561 -3.871,10.021 -4.375,9.48 -4.768,8.855 -5.049,8.148 -5.332,7.44 -5.473,6.684 -5.473,5.879 c 0,-0.805 0.143,-1.574 0.43,-2.282 0.286,-0.708 0.681,-1.332 1.184,-1.873 0.504,-0.541 1.084,-0.963 1.743,-1.268 0.659,-0.304 1.364,-0.457 2.117,-0.457 z m 0,-2.977 c -1.162,0 -2.255,0.23 -3.277,0.69 -1.022,0.459 -1.923,1.096 -2.699,1.909 -0.778,0.813 -1.386,1.754 -1.828,2.824 -0.442,1.069 -0.663,2.213 -0.663,3.434 0,1.221 0.221,2.364 0.663,3.434 0.442,1.07 1.051,2.011 1.828,2.824 0.777,0.814 1.677,1.45 2.699,1.909 1.022,0.459 2.115,0.69 3.277,0.69 1.162,0 2.266,-0.23 3.288,-0.69 1.023,-0.459 1.923,-1.095 2.7,-1.909 C 6.764,11.325 7.372,10.384 7.81,9.314 8.248,8.245 8.466,7.101 8.466,5.88 8.466,4.659 8.248,3.515 7.81,2.446 7.372,1.376 6.765,0.435 5.988,-0.378 5.21,-1.191 4.311,-1.828 3.288,-2.287 2.266,-2.746 1.169,-2.977 0,-2.977"
             style="fill:#ffffff;fill-opacity:1;fill-rule:nonzero;stroke:none"
             id="path132" />
        </g>
        <g
           id="g134"
           transform="translate(154.01,47.6943)">
          <path
             d="M 0,0 V 17.08 H 3.239 L 10.491,5.381 V 17.08 h 2.995 V 10e-4 H 10.258 L 2.993,11.7 V 10e-4 h -2.994 z"
             style="fill:#ffffff;fill-opacity:1;fill-rule:nonzero;stroke:none"
             id="path136" />
        </g>
        <g
           id="g138"
           transform="translate(81.6879,30.7074)">
          <path
             d="M 0,0 H 5.514 L 2.75,7.512 Z M 0.918,11.821 H 4.597 L 11.263,-6.404 H 7.872 l -1.179,3.228 h -7.858 l -1.179,-3.228 h -3.392 z"
             style="fill:#ffffff;fill-opacity:1;fill-rule:nonzero;stroke:none"
             id="path140" />
        </g>
        <g
           id="g142"
           transform="translate(104.809,42.5286)">
          <path
             d="m 0,0 v -3.177 h -5.606 v -15.05 H -8.8 v 15.05 h -5.606 V 0 l 14.404,0 z"
             style="fill:#ffffff;fill-opacity:1;fill-rule:nonzero;stroke:none"
             id="path144" />
        </g>
        <g
           id="g146"
           transform="translate(110.099,34.7312)">
          <path
             d="m 0,0 h 3.47 c 0.453,0 0.868,0.113 1.243,0.338 0.375,0.225 0.677,0.53 0.903,0.911 0.227,0.382 0.34,0.807 0.34,1.276 0,0.469 -0.113,0.907 -0.34,1.289 C 5.388,4.195 5.088,4.499 4.713,4.725 4.338,4.95 3.923,5.062 3.47,5.062 H 0 V -0.001 Z M -3.195,-10.428 V 7.797 H 3.837 C 4.833,7.797 5.731,7.55 6.535,7.055 7.338,6.56 7.976,5.898 8.447,5.069 8.919,4.241 9.155,3.323 9.155,2.316 9.155,1.492 9.004,0.734 8.703,0.044 8.403,-0.645 7.983,-1.242 7.446,-1.745 6.909,-2.248 6.291,-2.631 5.593,-2.891 L 9.98,-10.428 H 6.3 L 2.057,-3.177 H 0.001 v -7.251 h -3.195 z"
             style="fill:#ffffff;fill-opacity:1;fill-rule:nonzero;stroke:none"
             id="path148" />
        </g>
        <path
           d="m 122.658,42.529 h 3.196 V 24.304 h -3.196 z"
           style="fill:#ffffff;fill-opacity:1;fill-rule:nonzero;stroke:none"
           id="path150" />
        <g
           id="g152"
           transform="translate(136.211,23.9644)">
          <path
             d="M 0,0 C -1.467,0 -2.753,0.356 -3.858,1.068 -4.963,1.78 -5.82,2.736 -6.431,3.938 -7.042,5.139 -7.347,6.474 -7.347,7.941 v 10.622 h 3.194 V 7.941 c 0,-0.868 0.164,-1.665 0.491,-2.389 0.327,-0.725 0.799,-1.302 1.414,-1.731 0.616,-0.43 1.364,-0.644 2.246,-0.644 0.883,0 1.641,0.214 2.252,0.644 0.611,0.429 1.076,1.006 1.395,1.731 0.319,0.724 0.478,1.521 0.478,2.389 V 18.563 H 7.319 V 7.941 C 7.319,6.838 7.144,5.808 6.796,4.848 6.446,3.889 5.948,3.045 5.302,2.316 4.656,1.588 3.885,1.019 2.99,0.61 2.095,0.203 1.098,-0.001 -0.002,-0.001 Z"
             style="fill:#ffffff;fill-opacity:1;fill-rule:nonzero;stroke:none"
             id="path154" />
        </g>
        <g
           id="g156"
           transform="translate(146.151,24.3032)">
          <path
             d="m 0,0 3.562,18.225 h 2.645 l 4.466,-11.678 4.466,11.678 h 2.645 L 21.346,0 h -3.26 L 15.886,11.275 11.761,0.417 H 9.574 L 5.449,11.275 3.262,0 h -3.26 z"
             style="fill:#ffffff;fill-opacity:1;fill-rule:nonzero;stroke:none"
             id="path158" />
        </g>
        <g
           id="g160"
           transform="translate(115.6225,47.6942)">
          <path
             d="M 0,0 V 2.977 L 9.795,14.103 H 0 V 17.08 H 13.809 V 14.103 L 4.013,2.977 h 9.796 V 0 Z"
             style="fill:#ffffff;fill-opacity:1;fill-rule:nonzero;stroke:none"
             id="path162" />
        </g>
      </g>
    </g>
  </g>
</svg>
