<svg width="80" height="56" viewBox="0 0 80 56" fill="none" xmlns="http://www.w3.org/2000/svg">
<g id="icon">
<path id="Vector" d="M61.0319 23.0169C49.1399 11.2629 29.8601 11.2629 17.9681 23.0169L16.3121 24.6537L13 21.3778L14.656 19.741C28.3751 6.18123 50.6226 6.18123 64.344 19.741L66 21.3778L62.6879 24.6537L61.0319 23.0169ZM50.2642 33.6572C47.409 30.8354 43.5366 29.2501 39.4988 29.2501C35.4611 29.2501 31.5887 30.8354 28.7335 33.6572L27.0774 35.294L23.7654 32.0204L25.4214 30.3836C29.1551 26.6937 34.2189 24.6208 39.4988 24.6208C44.7788 24.6208 49.8425 26.6937 53.5763 30.3836L55.2346 32.0204L51.9202 35.294L50.2642 33.6572ZM36.1868 41.024C36.6218 40.5938 37.1383 40.2526 37.7068 40.0198C38.2753 39.787 38.8846 39.6671 39.5 39.6671C40.1154 39.6671 40.7247 39.787 41.2932 40.0198C41.8617 40.2526 42.3782 40.5938 42.8132 41.024L44.4693 42.6608L39.4988 47.5712L34.5331 42.6608L36.1868 41.024Z" fill="#253871"/>
</g>
</svg>
