<svg width="80" height="56" viewBox="0 0 80 56" fill="none" xmlns="http://www.w3.org/2000/svg">
<g id="icon">
<g id="icon_2">
<path fill-rule="evenodd" clip-rule="evenodd" d="M25.3 10.771C24.743 10.771 24.2089 10.9923 23.8151 11.3861C23.4212 11.7799 23.2 12.3141 23.2 12.871V42.271C23.2 42.828 23.4212 43.3621 23.8151 43.756C24.2089 44.1498 24.743 44.371 25.3 44.371H54.7C55.2569 44.371 55.7911 44.1498 56.1849 43.756C56.5788 43.3621 56.8 42.828 56.8 42.271V12.871C56.8 12.3141 56.5788 11.7799 56.1849 11.3861C55.7911 10.9923 55.257 10.771 54.7 10.771H25.3ZM20.8452 8.41627C22.0267 7.23479 23.6291 6.57104 25.3 6.57104H54.7C56.3709 6.57104 57.9733 7.23479 59.1548 8.41627C60.3362 9.59775 61 11.2002 61 12.871V42.271C61 43.9419 60.3362 45.5443 59.1548 46.7258C57.9733 47.9073 56.3709 48.571 54.7 48.571H25.3C23.6291 48.571 22.0267 47.9073 20.8452 46.7258C19.6637 45.5443 19 43.9419 19 42.271V12.871C19 11.2002 19.6637 9.59775 20.8452 8.41627Z" fill="#253871"/>
<path fill-rule="evenodd" clip-rule="evenodd" d="M31 17.971C31 16.6456 32.0633 15.571 33.375 15.571H42.875C44.7647 15.571 46.5769 16.3296 47.9131 17.6799C49.2493 19.0301 50 20.8615 50 22.771C50 24.6806 49.2493 26.512 47.9131 27.8622C46.5769 29.2125 44.7647 29.971 42.875 29.971H35.75V37.171C35.75 38.4965 34.6867 39.571 33.375 39.571C32.0633 39.571 31 38.4965 31 37.171V17.971ZM35.75 25.171H42.875C43.5049 25.171 44.109 24.9182 44.5544 24.4681C44.9998 24.018 45.25 23.4076 45.25 22.771C45.25 22.1345 44.9998 21.5241 44.5544 21.074C44.109 20.6239 43.5049 20.371 42.875 20.371H35.75V25.171Z" fill="#253871"/>
</g>
</g>
</svg>
