<svg width="20" height="21" viewBox="0 0 20 21" fill="none" xmlns="http://www.w3.org/2000/svg">
<path id="Vector" d="M11.0281 0.501352C11.7578 0.498552 12.4876 0.505886 13.2171 0.523353L13.4111 0.530353C13.6351 0.538353 13.8561 0.548352 14.1231 0.560352C15.1871 0.610352 15.9131 0.778353 16.5501 1.02535C17.2101 1.27935 17.7661 1.62335 18.3221 2.17935C18.8305 2.67896 19.2239 3.2833 19.4751 3.95035C19.7221 4.58735 19.8901 5.31435 19.9401 6.37835C19.9521 6.64435 19.9621 6.86635 19.9701 7.09035L19.9761 7.28435C19.9939 8.01355 20.0015 8.74295 19.9991 9.47235L20.0001 10.2184V11.5284C20.0026 12.2581 19.9949 12.9878 19.9771 13.7174L19.9711 13.9114C19.9631 14.1354 19.9531 14.3564 19.9411 14.6234C19.8911 15.6874 19.7211 16.4134 19.4751 17.0504C19.2247 17.7181 18.8312 18.323 18.3221 18.8224C17.8221 19.3307 17.2174 19.7241 16.5501 19.9754C15.9131 20.2224 15.1871 20.3904 14.1231 20.4404C13.8561 20.4524 13.6351 20.4624 13.4111 20.4704L13.2171 20.4764C12.4876 20.4941 11.7578 20.5018 11.0281 20.4994L10.2821 20.5004H8.97309C8.24335 20.5028 7.51361 20.4951 6.78409 20.4774L6.59009 20.4714C6.3527 20.4627 6.11536 20.4527 5.87809 20.4414C4.81409 20.3914 4.08809 20.2214 3.45009 19.9754C2.78277 19.7247 2.17833 19.3312 1.67909 18.8224C1.17013 18.3226 0.776313 17.7179 0.525089 17.0504C0.278089 16.4134 0.110089 15.6874 0.0600887 14.6234C0.0489516 14.3861 0.0389515 14.1487 0.0300887 13.9114L0.0250888 13.7174C0.0066524 12.9878 -0.00168183 12.2581 8.87195e-05 11.5284V9.47235C-0.00270225 8.74295 0.00463187 8.01355 0.0220888 7.28435L0.0290888 7.09035C0.0370888 6.86635 0.0470887 6.64435 0.0590887 6.37835C0.109089 5.31335 0.277089 4.58835 0.524089 3.95035C0.775461 3.28297 1.17005 2.6788 1.68009 2.18035C2.17898 1.6711 2.78305 1.27693 3.45009 1.02535C4.08809 0.778353 4.81309 0.610352 5.87809 0.560352L6.59009 0.530353L6.78409 0.525353C7.51327 0.506925 8.24267 0.498591 8.97209 0.500353L11.0281 0.501352ZM10.0001 5.50135C9.33759 5.49198 8.67985 5.61438 8.06507 5.86142C7.45029 6.10846 6.89074 6.47523 6.41893 6.94041C5.94713 7.40558 5.57249 7.95989 5.31678 8.57112C5.06106 9.18234 4.92938 9.83829 4.92938 10.5009C4.92938 11.1634 5.06106 11.8194 5.31678 12.4306C5.57249 13.0418 5.94713 13.5961 6.41893 14.0613C6.89074 14.5265 7.45029 14.8932 8.06507 15.1403C8.67985 15.3873 9.33759 15.5097 10.0001 15.5004C11.3262 15.5004 12.5979 14.9736 13.5356 14.0359C14.4733 13.0982 15.0001 11.8264 15.0001 10.5004C15.0001 9.17427 14.4733 7.9025 13.5356 6.96482C12.5979 6.02714 11.3262 5.50135 10.0001 5.50135ZM10.0001 7.50135C10.3986 7.49401 10.7946 7.56615 11.1649 7.71356C11.5352 7.86097 11.8724 8.08069 12.1569 8.3599C12.4413 8.6391 12.6673 8.97219 12.8215 9.33969C12.9758 9.7072 13.0553 10.1018 13.0554 10.5003C13.0554 10.8989 12.9761 11.2935 12.8219 11.6611C12.6678 12.0286 12.4419 12.3618 12.1576 12.6411C11.8732 12.9204 11.5361 13.1402 11.1658 13.2878C10.7955 13.4353 10.3996 13.5076 10.0011 13.5004C9.20544 13.5004 8.44238 13.1843 7.87977 12.6217C7.31716 12.0591 7.00109 11.296 7.00109 10.5004C7.00109 9.7047 7.31716 8.94164 7.87977 8.37903C8.44238 7.81642 9.20544 7.50035 10.0011 7.50035L10.0001 7.50135ZM15.2501 4.00135C14.9275 4.01426 14.6224 4.1515 14.3987 4.38432C14.175 4.61714 14.0501 4.92749 14.0501 5.25035C14.0501 5.57322 14.175 5.88356 14.3987 6.11638C14.6224 6.3492 14.9275 6.48644 15.2501 6.49935C15.5816 6.49935 15.8996 6.36766 16.134 6.13324C16.3684 5.89882 16.5001 5.58087 16.5001 5.24935C16.5001 4.91783 16.3684 4.59989 16.134 4.36547C15.8996 4.13105 15.5816 3.99935 15.2501 3.99935V4.00135Z" fill="white"/>
</svg>
