<svg width="21" height="21" viewBox="0 0 21 21" fill="none" xmlns="http://www.w3.org/2000/svg">
<g id="icon">
<path id="Vector" d="M11 6.64286C12.188 6.64268 13.3394 7.05381 14.2587 7.8064C15.1779 8.55899 15.8082 9.60662 16.0426 10.7713L16.0747 10.788L16.0541 10.8279C16.2512 11.8675 16.1228 12.9427 15.6864 13.9067C15.25 14.8706 14.5269 15.6766 13.6157 16.2145C12.7044 16.7524 11.6494 16.9961 10.5946 16.9125C9.5397 16.8288 8.53633 16.4217 7.7213 15.7469C6.90627 15.072 6.31926 14.1621 6.04032 13.1414C5.76138 12.1207 5.80409 11.0387 6.16264 10.0431C6.52118 9.04756 7.1781 8.18682 8.0438 7.5783C8.9095 6.96978 9.94183 6.64312 11 6.64286ZM7.76514 11.3589C8.624 10.977 9.73614 10.806 11.1556 11.1621C13.0366 11.6314 14.1539 11.0799 14.6604 10.5669C14.3724 9.70615 13.7903 8.97452 13.0162 8.50058C12.2422 8.02664 11.3259 7.84072 10.4283 7.97552C9.53079 8.11032 8.7095 8.55721 8.10884 9.23761C7.50818 9.91802 7.16659 10.7884 7.14414 11.6957C7.34223 11.5677 7.54984 11.4551 7.76514 11.3589ZM7.78571 4.71429C7.78571 4.97003 7.68412 5.2153 7.50328 5.39614C7.32244 5.57698 7.07717 5.67857 6.82143 5.67857C6.56568 5.67857 6.32041 5.57698 6.13958 5.39614C5.95874 5.2153 5.85714 4.97003 5.85714 4.71429C5.85714 4.45854 5.95874 4.21327 6.13958 4.03243C6.32041 3.85159 6.56568 3.75 6.82143 3.75C7.07717 3.75 7.32244 3.85159 7.50328 4.03243C7.68412 4.21327 7.78571 4.45854 7.78571 4.71429ZM11.6429 4.07143C11.4724 4.07143 11.3088 4.13916 11.1883 4.25972C11.0677 4.38028 11 4.54379 11 4.71429C11 4.88478 11.0677 5.0483 11.1883 5.16885C11.3088 5.28941 11.4724 5.35714 11.6429 5.35714H15.5C15.6705 5.35714 15.834 5.28941 15.9546 5.16885C16.0751 5.0483 16.1429 4.88478 16.1429 4.71429C16.1429 4.54379 16.0751 4.38028 15.9546 4.25972C15.834 4.13916 15.6705 4.07143 15.5 4.07143H11.6429ZM5.85714 1.5C4.83416 1.5 3.85309 1.90638 3.12973 2.62973C2.40638 3.35309 2 4.33416 2 5.35714V15.6429C2 16.6658 2.40638 17.6469 3.12973 18.3703C3.85309 19.0936 4.83416 19.5 5.85714 19.5H16.1429C17.1658 19.5 18.1469 19.0936 18.8703 18.3703C19.5936 17.6469 20 16.6658 20 15.6429V5.35714C20 4.33416 19.5936 3.35309 18.8703 2.62973C18.1469 1.90638 17.1658 1.5 16.1429 1.5H5.85714ZM3.28571 5.35714C3.28571 4.67516 3.55663 4.0211 4.03887 3.53887C4.5211 3.05663 5.17516 2.78571 5.85714 2.78571H16.1429C16.8248 2.78571 17.4789 3.05663 17.9611 3.53887C18.4434 4.0211 18.7143 4.67516 18.7143 5.35714V15.6429C18.7143 16.3248 18.4434 16.9789 17.9611 17.4611C17.4789 17.9434 16.8248 18.2143 16.1429 18.2143H5.85714C5.17516 18.2143 4.5211 17.9434 4.03887 17.4611C3.55663 16.9789 3.28571 16.3248 3.28571 15.6429V5.35714Z" fill="#253871"/>
</g>
</svg>
