<svg width="22" height="22" viewBox="0 0 22 22" fill="none" xmlns="http://www.w3.org/2000/svg">
<g id="location">
<g id="vuesax/bold/location">
<path id="Vector" d="M18.9018 7.74591C17.9393 3.51091 14.2451 1.60425 11.0001 1.60425C11.0001 1.60425 11.0001 1.60425 10.9909 1.60425C7.75509 1.60425 4.05175 3.50175 3.08925 7.73675C2.01675 12.4667 4.91342 16.4726 7.53509 18.9934C8.50675 19.9284 9.75342 20.3959 11.0001 20.3959C12.2468 20.3959 13.4934 19.9284 14.4559 18.9934C17.0776 16.4726 19.9743 12.4759 18.9018 7.74591ZM11.0001 12.3384C9.40509 12.3384 8.11259 11.0459 8.11259 9.45091C8.11259 7.85591 9.40509 6.56341 11.0001 6.56341C12.5951 6.56341 13.8876 7.85591 13.8876 9.45091C13.8876 11.0459 12.5951 12.3384 11.0001 12.3384Z" fill="currentColor"/>
</g>
</g>
</svg>
