<?xml version="1.0" encoding="UTF-8" standalone="no"?>
<!-- Created with Inkscape (http://www.inkscape.org/) -->

<svg
   version="1.1"
   id="svg2"
   width="180px"
   height="40px"
   viewBox="0 0 224 72.528801"
   sodipodi:docname="footer_logo_black.ai"
   xmlns:inkscape="http://www.inkscape.org/namespaces/inkscape"
   xmlns:sodipodi="http://sodipodi.sourceforge.net/DTD/sodipodi-0.dtd"
   xmlns="http://www.w3.org/2000/svg"
   xmlns:svg="http://www.w3.org/2000/svg">
  <defs
     id="defs6">
    <linearGradient
       x1="0"
       y1="0"
       x2="1"
       y2="0"
       gradientUnits="userSpaceOnUse"
       gradientTransform="matrix(15.595701,0,0,15.595701,27.052,4.7010231)"
       spreadMethod="pad"
       id="linearGradient32">
      <stop
         style="stop-opacity:1;stop-color:#4790cd"
         offset="0"
         id="stop22" />
      <stop
         style="stop-opacity:1;stop-color:#4790cd"
         offset="0.17"
         id="stop24" />
      <stop
         style="stop-opacity:1;stop-color:#6b88c5"
         offset="0.35"
         id="stop26" />
      <stop
         style="stop-opacity:1;stop-color:#c676b1"
         offset="0.8"
         id="stop28" />
      <stop
         style="stop-opacity:1;stop-color:#ea6faa"
         offset="1"
         id="stop30" />
    </linearGradient>
    <linearGradient
       x1="0"
       y1="0"
       x2="1"
       y2="0"
       gradientUnits="userSpaceOnUse"
       gradientTransform="matrix(68.695229,0,0,68.695229,0.5031738,27.5)"
       spreadMethod="pad"
       id="linearGradient58">
      <stop
         style="stop-opacity:1;stop-color:#4790cd"
         offset="0"
         id="stop48" />
      <stop
         style="stop-opacity:1;stop-color:#4790cd"
         offset="0.17"
         id="stop50" />
      <stop
         style="stop-opacity:1;stop-color:#6b88c5"
         offset="0.35"
         id="stop52" />
      <stop
         style="stop-opacity:1;stop-color:#c676b1"
         offset="0.8"
         id="stop54" />
      <stop
         style="stop-opacity:1;stop-color:#ea6faa"
         offset="1"
         id="stop56" />
    </linearGradient>
    <linearGradient
       x1="0"
       y1="0"
       x2="1"
       y2="0"
       gradientUnits="userSpaceOnUse"
       gradientTransform="matrix(26.3123,0,0,-26.3123,21.6943,7.6153221)"
       spreadMethod="pad"
       id="linearGradient82">
      <stop
         style="stop-opacity:1;stop-color:#1e3e73"
         offset="0"
         id="stop74" />
      <stop
         style="stop-opacity:1;stop-color:#1e3e73"
         offset="0.17"
         id="stop76" />
      <stop
         style="stop-opacity:1;stop-color:#2a5097"
         offset="0.85"
         id="stop78" />
      <stop
         style="stop-opacity:1;stop-color:#2a5097"
         offset="1"
         id="stop80" />
    </linearGradient>
    <linearGradient
       x1="0"
       y1="0"
       x2="1"
       y2="0"
       gradientUnits="userSpaceOnUse"
       gradientTransform="matrix(68.695267,0,0,-68.695267,0.50293,18.98287)"
       spreadMethod="pad"
       id="linearGradient106">
      <stop
         style="stop-opacity:1;stop-color:#1e3e73"
         offset="0"
         id="stop98" />
      <stop
         style="stop-opacity:1;stop-color:#1e3e73"
         offset="0.17"
         id="stop100" />
      <stop
         style="stop-opacity:1;stop-color:#2a5097"
         offset="0.85"
         id="stop102" />
      <stop
         style="stop-opacity:1;stop-color:#2a5097"
         offset="1"
         id="stop104" />
    </linearGradient>
    <clipPath
       clipPathUnits="userSpaceOnUse"
       id="clipPath116">
      <path
         d="M 0,54.397 H 168 V 0 H 0 Z"
         id="path114" />
    </clipPath>
  </defs>
  <sodipodi:namedview
     id="namedview4"
     pagecolor="#ffffff"
     bordercolor="#000000"
     borderopacity="0.25"
     inkscape:showpageshadow="2"
     inkscape:pageopacity="0.0"
     inkscape:pagecheckerboard="0"
     inkscape:deskcolor="#d1d1d1" />
  <g
     id="g8"
     inkscape:groupmode="layer"
     inkscape:label="footer_logo_black"
     transform="matrix(1.3333333,0,0,-1.3333333,0,72.5288)">
    <g
       id="g10">
      <g
         id="g12">
        <g
           id="g18">
          <g
             id="g20">
            <path
               d="M 27.052,0.557 H 42.647 L 34.851,8.845 Z"
               style="fill:url(#linearGradient32);stroke:none"
               id="path34" />
          </g>
        </g>
      </g>
    </g>
    <g
       id="g36">
      <g
         id="g38">
        <g
           id="g44">
          <g
             id="g46">
            <path
               d="M 24.277,52.757 C 18.262,50.786 12.837,47.119 8.722,42.338 v 0 C 4.98,38.063 2.389,32.812 1.258,27.258 v 0 C 0.551,24.209 0.48,21.064 0.511,17.949 v 0 C 0.508,12.169 0.498,6.387 0.507,0.607 v 0 h 0.001 l 16.397,17.59 c -0.063,0.374 -0.121,0.747 -0.133,1.127 v 0 c -0.384,4.545 1.109,9.155 3.887,12.761 v 0 c 3.196,4.227 8.25,7.194 13.631,7.33 v 0 c 2.981,0.122 5.98,-0.571 8.616,-1.956 v 0 c 5.339,-2.714 9.121,-8.122 10.001,-14.001 v 0 c 0.302,-1.79 0.265,-3.609 0.026,-5.404 v 0 L 69.198,0.604 C 69.192,2.102 69.149,3.602 69.157,5.1 v 0 c 0.004,3.446 -0.014,6.893 -0.008,10.339 v 0 c -0.02,2.756 0.112,5.526 -0.211,8.271 v 0 c -0.274,2.764 -0.918,5.491 -1.85,8.109 v 0 c -1.86,5.014 -4.875,9.6 -8.747,13.311 v 0 c -4.273,4.007 -9.566,6.992 -15.303,8.325 v 0 c -2.65,0.628 -5.375,0.941 -8.098,0.941 v 0 c -3.612,0 -7.223,-0.549 -10.663,-1.639"
               style="fill:url(#linearGradient58);stroke:none"
               id="path60" />
          </g>
        </g>
      </g>
    </g>
    <g
       id="g62">
      <g
         id="g64">
        <g
           id="g70">
          <g
             id="g72">
            <path
               d="m 21.695,0.558 h 5.409 l 7.747,8.312 7.747,-8.312 h 5.409 L 34.851,14.673 Z"
               style="fill:url(#linearGradient82);stroke:none"
               id="path84" />
          </g>
        </g>
      </g>
    </g>
    <g
       id="g86">
      <g
         id="g88">
        <g
           id="g94">
          <g
             id="g96">
            <path
               d="M 0.503,0.558 H 13.371 L 34.837,23.587 56.302,0.558 H 69.198 L 34.851,37.409 Z"
               style="fill:url(#linearGradient106);stroke:none"
               id="path108" />
          </g>
        </g>
      </g>
    </g>
    <g
       id="g110">
      <g
         id="g112"
         clip-path="url(#clipPath116)">
        <g
           id="g118"
           transform="translate(78.9466,39.7715)">
          <path
             d="M 0,0 H 2.822 C 3.248,0 3.636,0.106 3.987,0.317 4.34,0.528 4.62,0.813 4.828,1.171 5.036,1.528 5.141,1.927 5.141,2.367 5.141,2.806 5.036,3.216 4.828,3.575 4.62,3.932 4.34,4.217 3.987,4.428 3.635,4.64 3.248,4.745 2.822,4.745 H 0 Z M -2.995,-9.772 V 7.308 H 3.141 C 4.074,7.308 4.919,7.076 5.676,6.613 6.432,6.15 7.032,5.527 7.473,4.747 7.915,3.965 8.136,3.108 8.136,2.173 8.136,1.239 7.909,0.345 7.455,-0.431 7,-1.208 6.393,-1.826 5.632,-2.286 4.871,-2.745 4.041,-2.975 3.141,-2.975 H 0 V -9.77 h -2.995 z"
             style="fill:#231f20;fill-opacity:1;fill-rule:nonzero;stroke:none"
             id="path120" />
        </g>
        <g
           id="g122"
           transform="translate(88.481,29.9998)">
          <path
             d="M 0,0 V 17.08 H 10.774 V 14.103 H 2.993 V 10.638 H 9.165 V 7.661 H 2.993 V 2.977 h 7.781 V 0 Z"
             style="fill:#231f20;fill-opacity:1;fill-rule:nonzero;stroke:none"
             id="path124" />
        </g>
        <g
           id="g126"
           transform="translate(100.901,29.9998)">
          <path
             d="M 0,0 V 17.08 H 3.239 L 10.491,5.381 V 17.08 h 2.995 V 10e-4 H 10.258 L 2.993,11.7 V 10e-4 h -2.994 z"
             style="fill:#231f20;fill-opacity:1;fill-rule:nonzero;stroke:none"
             id="path128" />
        </g>
        <g
           id="g130"
           transform="translate(130.916,29.9998)">
          <path
             d="M 0,0 V 17.08 H 2.994 V 10e-4 L 0,0.001 Z"
             style="fill:#231f20;fill-opacity:1;fill-rule:nonzero;stroke:none"
             id="path132" />
        </g>
        <g
           id="g134"
           transform="translate(144.144,32.6597)">
          <path
             d="M 0,0 C 0.753,0 1.46,0.154 2.123,0.463 2.786,0.772 3.369,1.197 3.872,1.738 4.375,2.279 4.767,2.903 5.049,3.611 5.332,4.319 5.473,5.075 5.473,5.88 5.473,6.685 5.33,7.443 5.044,8.155 4.757,8.867 4.362,9.491 3.859,10.028 3.355,10.564 2.775,10.987 2.116,11.296 1.457,11.604 0.753,11.759 0,11.759 c -0.752,0 -1.46,-0.155 -2.123,-0.463 C -2.786,10.987 -3.369,10.562 -3.871,10.021 -4.375,9.48 -4.768,8.855 -5.049,8.148 -5.332,7.44 -5.473,6.684 -5.473,5.879 c 0,-0.805 0.143,-1.574 0.43,-2.282 0.286,-0.708 0.681,-1.332 1.184,-1.873 0.504,-0.541 1.084,-0.963 1.743,-1.268 0.659,-0.304 1.364,-0.457 2.117,-0.457 z m 0,-2.977 c -1.162,0 -2.255,0.23 -3.277,0.69 -1.022,0.459 -1.923,1.096 -2.699,1.909 -0.778,0.813 -1.386,1.755 -1.828,2.824 -0.442,1.069 -0.663,2.213 -0.663,3.434 0,1.221 0.221,2.364 0.663,3.434 0.442,1.07 1.051,2.011 1.828,2.824 0.777,0.814 1.677,1.45 2.699,1.909 1.022,0.459 2.115,0.69 3.277,0.69 1.162,0 2.266,-0.23 3.288,-0.69 1.023,-0.459 1.923,-1.095 2.7,-1.909 C 6.764,11.325 7.372,10.384 7.81,9.314 8.248,8.245 8.466,7.101 8.466,5.88 8.466,4.659 8.248,3.515 7.81,2.446 7.372,1.377 6.765,0.435 5.988,-0.378 5.21,-1.191 4.311,-1.828 3.288,-2.287 2.266,-2.746 1.169,-2.977 0,-2.977"
             style="fill:#231f20;fill-opacity:1;fill-rule:nonzero;stroke:none"
             id="path136" />
        </g>
        <g
           id="g138"
           transform="translate(154.01,29.9998)">
          <path
             d="M 0,0 V 17.08 H 3.239 L 10.491,5.381 V 17.08 h 2.995 V 10e-4 H 10.258 L 2.993,11.7 V 10e-4 h -2.994 z"
             style="fill:#231f20;fill-opacity:1;fill-rule:nonzero;stroke:none"
             id="path140" />
        </g>
        <g
           id="g142"
           transform="translate(81.6879,13.0129)">
          <path
             d="M 0,0 H 5.514 L 2.75,7.512 Z M 0.918,11.821 H 4.597 L 11.263,-6.404 H 7.872 l -1.179,3.228 h -7.858 l -1.179,-3.228 h -3.392 z"
             style="fill:#231f20;fill-opacity:1;fill-rule:nonzero;stroke:none"
             id="path144" />
        </g>
        <g
           id="g146"
           transform="translate(104.809,24.8341)">
          <path
             d="m 0,0 v -3.177 h -5.606 v -15.05 H -8.8 v 15.05 h -5.606 V 0 l 14.404,0 z"
             style="fill:#231f20;fill-opacity:1;fill-rule:nonzero;stroke:none"
             id="path148" />
        </g>
        <g
           id="g150"
           transform="translate(110.099,17.0367)">
          <path
             d="m 0,0 h 3.47 c 0.453,0 0.868,0.113 1.243,0.338 0.375,0.225 0.677,0.53 0.903,0.911 0.227,0.382 0.34,0.807 0.34,1.276 0,0.469 -0.113,0.907 -0.34,1.289 C 5.388,4.195 5.088,4.499 4.713,4.725 4.338,4.95 3.923,5.062 3.47,5.062 H 0 V -0.001 Z M -3.195,-10.428 V 7.797 H 3.837 C 4.833,7.797 5.731,7.55 6.535,7.055 7.338,6.56 7.976,5.898 8.447,5.069 8.919,4.241 9.155,3.323 9.155,2.316 9.155,1.492 9.004,0.734 8.703,0.045 8.403,-0.645 7.983,-1.242 7.446,-1.745 6.909,-2.248 6.291,-2.631 5.593,-2.891 L 9.98,-10.428 H 6.3 L 2.057,-3.177 H 0.001 v -7.251 h -3.195 z"
             style="fill:#231f20;fill-opacity:1;fill-rule:nonzero;stroke:none"
             id="path152" />
        </g>
        <path
           d="m 122.658,24.834 h 3.196 V 6.609 h -3.196 z"
           style="fill:#231f20;fill-opacity:1;fill-rule:nonzero;stroke:none"
           id="path154" />
        <g
           id="g156"
           transform="translate(136.211,6.2699)">
          <path
             d="M 0,0 C -1.467,0 -2.753,0.356 -3.858,1.068 -4.963,1.78 -5.82,2.736 -6.431,3.938 -7.042,5.139 -7.347,6.474 -7.347,7.941 v 10.622 h 3.194 V 7.941 c 0,-0.868 0.164,-1.665 0.491,-2.389 0.327,-0.724 0.799,-1.302 1.414,-1.731 0.616,-0.43 1.364,-0.644 2.246,-0.644 0.883,0 1.641,0.214 2.252,0.644 0.611,0.429 1.076,1.007 1.395,1.731 0.319,0.724 0.478,1.521 0.478,2.389 V 18.563 H 7.319 V 7.941 C 7.319,6.838 7.144,5.808 6.796,4.848 6.446,3.889 5.948,3.045 5.302,2.316 4.656,1.588 3.885,1.019 2.99,0.61 2.095,0.203 1.098,-0.001 -0.002,-0.001 Z"
             style="fill:#231f20;fill-opacity:1;fill-rule:nonzero;stroke:none"
             id="path158" />
        </g>
        <g
           id="g160"
           transform="translate(146.151,6.6087)">
          <path
             d="m 0,0 3.562,18.225 h 2.645 l 4.466,-11.678 4.466,11.678 h 2.645 L 21.346,0 h -3.26 L 15.886,11.275 11.761,0.417 H 9.574 L 5.449,11.275 3.262,0 h -3.26 z"
             style="fill:#231f20;fill-opacity:1;fill-rule:nonzero;stroke:none"
             id="path162" />
        </g>
        <g
           id="g164"
           transform="translate(115.6225,29.9998)">
          <path
             d="M 0,0 V 2.977 L 9.795,14.103 H 0 V 17.08 H 13.809 V 14.103 L 4.013,2.977 h 9.796 V 0 Z"
             style="fill:#231f20;fill-opacity:1;fill-rule:nonzero;stroke:none"
             id="path166" />
        </g>
      </g>
    </g>
  </g>
</svg>
