<svg width="32" height="33" viewBox="0 0 32 33" fill="none" xmlns="http://www.w3.org/2000/svg">
<g id="icon">
<g id="Vector">
<path d="M22.5606 2.40781C24.1457 1.62594 26.2994 3.12572 25.9014 4.91692C25.7592 6.50911 23.7263 7.45446 22.3687 6.65126C20.7126 5.79831 20.8334 3.10439 22.5606 2.40781Z" fill="#414141"/>
<path d="M9.79477 11.6411C11.1595 9.75744 12.638 7.87383 14.486 6.44513C16.7321 6.19635 19.0564 6.11106 21.2883 6.54464C22.8237 7.62505 24.0462 9.08929 25.3754 10.4114C26.8183 9.34518 27.9698 6.82185 29.9814 7.25544C30.1306 7.56108 30.4221 8.16526 30.5642 8.4709C29.0644 10.3687 27.4438 12.359 25.2261 13.4394C24.1244 12.6575 23.1648 11.6908 22.1697 10.781C21.0253 12.1386 19.8667 13.4891 18.7153 14.8396C19.9094 16.0196 21.2173 17.1142 22.2053 18.486C22.1626 21.8196 21.0964 25.0893 20.2364 28.295C19.9165 29.7166 18.0187 29.3541 17.4074 28.3163C17.6135 25.7077 18.3812 23.1986 18.9285 20.6539C17.6917 19.4882 16.4691 18.3154 15.2395 17.1426C14.0098 18.4505 12.9365 19.9574 11.4296 20.9667C8.53666 21.6846 5.38783 20.5615 2.58019 21.7415C4.57042 23.49 6.4256 25.3736 8.3021 27.2359C9.06976 27.634 9.83031 28.0462 10.5838 28.4727C7.95381 29.1124 6.46824 26.7668 4.8263 25.2173C3.11329 23.49 1.32919 21.8125 0 19.7583C0.682364 20.1635 2.0542 20.9667 2.73656 21.3718C2.58019 20.7463 2.26744 19.4953 2.11106 18.8698C4.3714 17.8392 6.88761 18.1733 9.29721 18.1946C12.0338 15.0458 14.7846 11.9112 17.4216 8.68414C16.9027 8.68414 15.865 8.69125 15.3461 8.69835C13.9174 10.3261 12.6166 12.096 10.9391 13.4962C10.0435 13.3541 8.92049 12.5793 9.79477 11.6411Z" fill="#414141"/>
<path d="M25.3682 20.789C27.2945 17.0786 28.8653 13.1764 31.1328 9.65082C31.2536 10.8236 30.9124 11.9467 30.3722 12.9702C28.1403 17.3701 25.9226 21.777 23.776 26.2195C23.1932 27.4776 22.4042 28.6433 21.3309 29.5389C22.3402 26.4754 23.9893 23.689 25.3682 20.789Z" fill="#414141"/>
<path d="M0.66803 12.4514C3.36905 12.4514 6.07008 12.4443 8.7711 12.4727L8.82086 13.3612C6.07719 13.4394 3.33351 13.4323 0.589843 13.418L0.66803 12.4514Z" fill="#414141"/>
<path d="M28.0053 30.3919C29.5193 30.4914 30.7064 29.4323 32 28.8352C31.2963 30.0507 30.4718 31.6784 28.773 31.3728C21.004 31.458 13.235 31.3728 5.47309 31.4012L5.50863 30.399C13.0075 30.3776 20.5064 30.4416 28.0053 30.3919Z" fill="#414141"/>
</g>
</g>
</svg>
