<svg width="23" height="22" viewBox="0 0 23 22" fill="none" xmlns="http://www.w3.org/2000/svg">
<g id="sms">
<g id="vuesax/bold/sms">
<g id="sms_2">
<path id="Vector" d="M16.0835 3.20825H6.91683C4.16683 3.20825 2.3335 4.58325 2.3335 7.79158V14.2083C2.3335 17.4166 4.16683 18.7916 6.91683 18.7916H16.0835C18.8335 18.7916 20.6668 17.4166 20.6668 14.2083V7.79158C20.6668 4.58325 18.8335 3.20825 16.0835 3.20825ZM16.5143 8.79075L13.6452 11.0824C13.0402 11.5683 12.2702 11.8066 11.5002 11.8066C10.7302 11.8066 9.951 11.5683 9.35516 11.0824L6.486 8.79075C6.19266 8.55242 6.14683 8.11242 6.376 7.81908C6.61433 7.52575 7.04516 7.47075 7.3385 7.70908L10.2077 10.0008C10.9043 10.5599 12.0868 10.5599 12.7835 10.0008L15.6527 7.70908C15.946 7.47075 16.386 7.51658 16.6152 7.81908C16.8535 8.11242 16.8077 8.55242 16.5143 8.79075Z" fill="currentColor"/>
</g>
</g>
</g>
</svg>
