<svg width="21" height="22" viewBox="0 0 21 22" fill="none" xmlns="http://www.w3.org/2000/svg">
<g id="icon">
<path id="Vector" d="M10.3333 4.83333C10.3333 5.01014 10.2631 5.17971 10.1381 5.30474C10.013 5.42976 9.84348 5.5 9.66667 5.5H8.33333C8.15652 5.5 7.98695 5.42976 7.86193 5.30474C7.7369 5.17971 7.66667 5.01014 7.66667 4.83333C7.66667 4.65652 7.7369 4.48695 7.86193 4.36193C7.98695 4.2369 8.15652 4.16667 8.33333 4.16667H9.66667C9.84348 4.16667 10.013 4.2369 10.1381 4.36193C10.2631 4.48695 10.3333 4.65652 10.3333 4.83333ZM14.6933 15.9283L14.9867 17.9783C15.0136 18.1674 14.9997 18.3601 14.9457 18.5434C14.8918 18.7266 14.7991 18.8961 14.6739 19.0404C14.5487 19.1847 14.394 19.3004 14.2202 19.3797C14.0465 19.459 13.8577 19.5 13.6667 19.5H8.33333C8.14232 19.5 7.95354 19.459 7.77976 19.3797C7.60599 19.3004 7.45128 19.1847 7.32611 19.0404C7.20095 18.8961 7.10824 18.7266 7.05428 18.5434C7.00032 18.3601 6.98635 18.1674 7.01333 17.9783L7.30667 15.9283C6.00909 15.2521 4.92161 14.2332 4.16235 12.9824C3.4031 11.7315 3.00109 10.2966 3 8.83333C3 8.65652 3.07024 8.48695 3.19526 8.36193C3.32029 8.23691 3.48986 8.16667 3.66667 8.16667H5V2.83333C5 2.47971 5.14048 2.14057 5.39052 1.89052C5.64057 1.64048 5.97971 1.5 6.33333 1.5H15.6667C16.0203 1.5 16.3594 1.64048 16.6095 1.89052C16.8595 2.14057 17 2.47971 17 2.83333V8.16667H18.3333C18.5101 8.16667 18.6797 8.23691 18.8047 8.36193C18.9298 8.48695 19 8.65652 19 8.83333C18.9989 10.2966 18.5969 11.7315 17.8376 12.9824C17.0784 14.2332 15.9909 15.2521 14.6933 15.9283ZM6.33333 8.16667H15.6667V2.83333H6.33333V8.16667ZM13.4225 16.4583C11.8462 16.9583 10.1538 16.9583 8.5775 16.4583L8.33333 18.1667H13.6667L13.4225 16.4583ZM17.6333 9.5H4.36667C4.53174 11.1446 5.30185 12.6692 6.52755 13.778C7.75326 14.8869 9.34717 15.5008 11 15.5008C12.6528 15.5008 14.2467 14.8869 15.4724 13.778C16.6982 12.6692 17.4683 11.1446 17.6333 9.5Z" fill="#253871"/>
</g>
</svg>
