<svg width="21" height="21" viewBox="0 0 21 21" fill="none" xmlns="http://www.w3.org/2000/svg">
<g id="icon">
<path id="Vector" d="M9.38235 3.75C9.23414 3.75 9.092 3.80926 8.9872 3.91475C8.8824 4.02024 8.82353 4.16332 8.82353 4.3125C8.82353 4.46168 8.8824 4.60476 8.9872 4.71025C9.092 4.81574 9.23414 4.875 9.38235 4.875H11.6176C11.7659 4.875 11.908 4.81574 12.0128 4.71025C12.1176 4.60476 12.1765 4.46168 12.1765 4.3125C12.1765 4.16332 12.1176 4.02024 12.0128 3.91475C11.908 3.80926 11.7659 3.75 11.6176 3.75H9.38235ZM8.26471 13.875C8.26471 14.1734 8.14695 14.4595 7.93735 14.6705C7.72776 14.8815 7.44348 15 7.14706 15C6.85064 15 6.56636 14.8815 6.35676 14.6705C6.14716 14.4595 6.02941 14.1734 6.02941 13.875C6.02941 13.5766 6.14716 13.2905 6.35676 13.0795C6.56636 12.8685 6.85064 12.75 7.14706 12.75C7.44348 12.75 7.72776 12.8685 7.93735 13.0795C8.14695 13.2905 8.26471 13.5766 8.26471 13.875ZM13.8529 15C14.1494 15 14.4336 14.8815 14.6432 14.6705C14.8528 14.4595 14.9706 14.1734 14.9706 13.875C14.9706 13.5766 14.8528 13.2905 14.6432 13.0795C14.4336 12.8685 14.1494 12.75 13.8529 12.75C13.5565 12.75 13.2722 12.8685 13.0626 13.0795C12.853 13.2905 12.7353 13.5766 12.7353 13.875C12.7353 14.1734 12.853 14.4595 13.0626 14.6705C13.2722 14.8815 13.5565 15 13.8529 15ZM2.67647 5.4375C2.67647 4.39321 3.0886 3.39169 3.8222 2.65327C4.5558 1.91484 5.55077 1.5 6.58824 1.5H14.4118C15.4492 1.5 16.4442 1.91484 17.1778 2.65327C17.9114 3.39169 18.3235 4.39321 18.3235 5.4375V8.25H19.4412C19.5894 8.25 19.7315 8.30926 19.8363 8.41475C19.9411 8.52024 20 8.66332 20 8.8125C20 8.96168 19.9411 9.10476 19.8363 9.21025C19.7315 9.31574 19.5894 9.375 19.4412 9.375H18.3235V17.8125C18.3235 18.2601 18.1469 18.6893 17.8325 19.0057C17.5181 19.3222 17.0917 19.5 16.6471 19.5H15.5294C15.0848 19.5 14.6584 19.3222 14.344 19.0057C14.0296 18.6893 13.8529 18.2601 13.8529 17.8125V17.25H7.14706V17.8125C7.14706 18.2601 6.97043 18.6893 6.65603 19.0057C6.34163 19.3222 5.91522 19.5 5.47059 19.5H4.35294C3.90831 19.5 3.4819 19.3222 3.1675 19.0057C2.8531 18.6893 2.67647 18.2601 2.67647 17.8125V9.375H1.55882C1.41061 9.375 1.26848 9.31574 1.16368 9.21025C1.05888 9.10476 1 8.96168 1 8.8125C1 8.66332 1.05888 8.52024 1.16368 8.41475C1.26848 8.30926 1.41061 8.25 1.55882 8.25H2.67647V5.4375ZM17.2059 5.4375C17.2059 4.69158 16.9115 3.97621 16.3875 3.44876C15.8635 2.92132 15.1528 2.625 14.4118 2.625H6.58824C5.84719 2.625 5.13649 2.92132 4.6125 3.44876C4.0885 3.97621 3.79412 4.69158 3.79412 5.4375V10.5H17.2059V5.4375ZM14.9706 17.25V17.8125C14.9706 17.9617 15.0295 18.1048 15.1343 18.2102C15.2391 18.3157 15.3812 18.375 15.5294 18.375H16.6471C16.7953 18.375 16.9374 18.3157 17.0422 18.2102C17.147 18.1048 17.2059 17.9617 17.2059 17.8125V17.25H14.9706ZM3.79412 17.25V17.8125C3.79412 17.9617 3.85299 18.1048 3.95779 18.2102C4.06259 18.3157 4.20473 18.375 4.35294 18.375H5.47059C5.6188 18.375 5.76094 18.3157 5.86574 18.2102C5.97054 18.1048 6.02941 17.9617 6.02941 17.8125V17.25H3.79412ZM3.79412 16.125H17.2059V11.625H3.79412V16.125Z" fill="#253871"/>
</g>
</svg>
