<svg width="21" height="21" viewBox="0 0 21 21" fill="none" xmlns="http://www.w3.org/2000/svg">
<g id="icon">
<path id="Union" fill-rule="evenodd" clip-rule="evenodd" d="M15.1382 0.695262C15.3985 0.955612 15.3985 1.37772 15.1382 1.63807L12.2763 4.49999H16C17.8455 4.49999 19.3333 5.9878 19.3333 7.83332V14.5C19.3333 16.3455 17.8455 17.8333 16 17.8333H5.33333C3.48781 17.8333 2 16.3455 2 14.5V7.83332C2 5.9878 3.48781 4.49999 5.33333 4.49999H9.0571L6.19518 1.63807C5.93483 1.37772 5.93483 0.955612 6.19518 0.695262C6.45553 0.434913 6.87764 0.434913 7.13799 0.695262L10.6667 4.22395L14.1954 0.695262C14.4557 0.434913 14.8778 0.434913 15.1382 0.695262ZM10.6622 5.83332C10.6651 5.83334 10.668 5.83334 10.6709 5.83332H10.6711H16C17.1091 5.83332 18 6.72417 18 7.83332V14.5C18 15.6091 17.1091 16.5 16 16.5H5.33333C4.22419 16.5 3.33333 15.6091 3.33333 14.5V7.83332C3.33333 6.72417 4.22419 5.83332 5.33333 5.83332H10.6622ZM7.99992 19.167C7.63173 19.167 7.33325 19.4655 7.33325 19.8337C7.33325 20.2018 7.63173 20.5003 7.99992 20.5003H13.3333C13.7014 20.5003 13.9999 20.2018 13.9999 19.8337C13.9999 19.4655 13.7014 19.167 13.3333 19.167H7.99992Z" fill="#253871"/>
</g>
</svg>
