<svg width="21" height="22" viewBox="0 0 21 22" fill="none" xmlns="http://www.w3.org/2000/svg">
<g id="icon">
<path id="Vector" d="M18.15 5.06771H12.1514L14.7191 2.5H13.1163L10.5486 5.06771H10.4691L7.90137 2.5H6.29863L8.86634 5.06771H2.85C2.62465 5.06797 2.4086 5.15761 2.24925 5.31696C2.0899 5.47631 2.00026 5.69235 2 5.91771V16.401C2.00026 16.6264 2.0899 16.8424 2.24925 17.0018C2.4086 17.1611 2.62465 17.2508 2.85 17.251H6.81667V19.5H14.75V17.251H18.15C18.3754 17.2508 18.5914 17.1611 18.7508 17.0018C18.9101 16.8424 18.9997 16.6264 19 16.401V5.91771C18.9997 5.69235 18.9101 5.47631 18.7508 5.31696C18.5914 5.15761 18.3754 5.06797 18.15 5.06771ZM13.6167 18.3667H7.95V17.251H13.6167V18.3667ZM17.8667 16.1177H3.13333V6.20104H17.8667V16.1177Z" fill="#253871"/>
</g>
</svg>
