<svg width="32" height="34" viewBox="0 0 32 34" fill="none" xmlns="http://www.w3.org/2000/svg">
<g id="icon">
<g id="Vector">
<path d="M7.29086 1.88521C8.70683 0.298734 11.6796 1.67022 11.4795 3.76082C11.561 6.00709 8.18789 6.92636 7.00915 5.14713C6.21591 4.22786 6.38642 2.67845 7.29086 1.88521Z" fill="#414141"/>
<path d="M23.2 2.11504C23.845 0.832508 25.8318 1.53679 25.7651 2.90827C24.186 6.21467 21.8137 9.06144 20.1309 12.3011C19.6416 14.2583 20.0271 16.3192 19.9826 18.3134C17.8772 18.3134 15.7717 18.2689 13.6663 18.2615C13.6812 16.6083 13.6812 14.9477 13.6812 13.2945C12.1169 13.7171 10.3451 15.1924 8.78827 14.4881C7.35748 12.5532 5.50411 10.5738 5 8.20148C5.31878 7.93459 5.95634 7.40083 6.27511 7.13394C8.26933 7.7715 8.86982 10.2847 10.2858 11.7229C12.8657 10.3662 15.668 9.35798 18.6259 9.46918C20.0715 6.97085 21.5468 4.48734 23.2 2.11504Z" fill="#414141"/>
<path d="M14.7117 4.83577C16.1573 3.30118 19.0189 4.61336 18.9003 6.68172C18.9448 8.45353 16.78 9.68416 15.2529 8.83903C13.7628 8.15699 13.4514 5.89589 14.7117 4.83577Z" fill="#414141"/>
<path d="M20.3087 18.0688C21.695 17.6462 23.3037 16.0968 24.7197 17.0531C25.7576 19.3587 26.2246 21.9089 26.7139 24.3776C27.1513 25.9715 24.4973 26.9575 23.7782 25.46C23.1999 24.0811 22.9627 22.5984 22.6439 21.1454C21.6061 21.5012 19.508 22.0869 19.508 22.0869C19.508 22.0869 18.6105 22.7993 17.9218 22.8987C15.9941 23.1767 16.943 22.1017 15.9941 23.4732C14.1481 26.4015 13.3623 29.8784 11.5757 32.8512C10.2486 33.9632 8.18029 32.1543 8.81043 30.6568C10.3005 26.8166 12.0872 23.1025 13.6959 19.3142C15.6827 19.3068 17.6695 19.3068 19.6489 19.3513C19.812 19.0325 20.1456 18.3876 20.3087 18.0688Z" fill="#414141"/>
</g>
</g>
</svg>
